<svg xmlns="http://www.w3.org/2000/svg" xmlns:xlink="http://www.w3.org/1999/xlink" viewBox="0 0 532 738.42"><defs><style>.cls-1{isolation:isolate;}.cls-2{clip-path:url(#clip-path);}.cls-3{fill:#2f112a;}.cls-10,.cls-11,.cls-12,.cls-13,.cls-14,.cls-15,.cls-16,.cls-19,.cls-20,.cls-3,.cls-4,.cls-5,.cls-6,.cls-7,.cls-8,.cls-9{fill-rule:evenodd;}.cls-4{fill:url(#Áåçûìÿííûé_ãðàäèåíò_382);}.cls-5{fill:#9a4538;}.cls-6{fill:#ffd6a1;opacity:0.81;mix-blend-mode:soft-light;}.cls-7{fill:url(#Áåçûìÿííûé_ãðàäèåíò_299);}.cls-8{fill:url(#Áåçûìÿííûé_ãðàäèåíò_379);}.cls-9{fill:url(#Áåçûìÿííûé_ãðàäèåíò_391);}.cls-10{fill:#815252;}.cls-11{fill:#723d3e;}.cls-12{fill:#bf523c;}.cls-13{fill:#ff3b00;}.cls-14{fill:#ff8d00;}.cls-15{fill:#ffba00;}.cls-16{fill:#983b00;}.cls-17,.cls-18,.cls-20{opacity:0.5;mix-blend-mode:screen;}.cls-17{fill:url(#Áåçûìÿííûé_ãðàäèåíò_386);}.cls-18{fill:url(#Áåçûìÿííûé_ãðàäèåíò_385);}.cls-19{fill:#ffbf00;}.cls-20{fill:url(#Áåçûìÿííûé_ãðàäèåíò_402);}</style><clipPath id="clip-path" transform="translate(-1506.01 -563.57)"/><linearGradient id="Áåçûìÿííûé_ãðàäèåíò_382" x1="1407.94" y1="1257.21" x2="1407.94" y2="1165.38" gradientTransform="matrix(-0.98, 0.2, 0.2, 0.98, 2982.82, -331.14)" gradientUnits="userSpaceOnUse"><stop offset="0" stop-color="#4a2836"/><stop offset="1" stop-color="#25091c"/></linearGradient><linearGradient id="Áåçûìÿííûé_ãðàäèåíò_299" x1="1479.87" y1="1178.27" x2="1479.87" y2="1100.86" gradientTransform="matrix(-1, 0, 0, 1, 3162, 0)" gradientUnits="userSpaceOnUse"><stop offset="0" stop-color="#4a2836"/><stop offset="1" stop-color="#402738"/></linearGradient><linearGradient id="Áåçûìÿííûé_ãðàäèåíò_379" x1="1462.35" y1="1187.48" x2="1462.35" y2="1092.03" gradientTransform="matrix(-1, 0, 0, 1, 3162, 0)" gradientUnits="userSpaceOnUse"><stop offset="0" stop-color="#4a2836"/><stop offset="1" stop-color="#2a1a4a"/></linearGradient><linearGradient id="Áåçûìÿííûé_ãðàäèåíò_391" x1="1354.11" y1="1185.86" x2="1354.11" y2="1148.22" gradientTransform="matrix(-1, 0, 0, 1, 3162, 0)" gradientUnits="userSpaceOnUse"><stop offset="0" stop-color="#1e0e21"/><stop offset="1" stop-color="#4a2836"/></linearGradient><radialGradient id="Áåçûìÿííûé_ãðàäèåíò_386" cx="1522.56" cy="1144.92" r="92.13" gradientTransform="matrix(-1.69, 0, 0, 1, 2839.28, -563.57)" gradientUnits="userSpaceOnUse"><stop offset="0" stop-color="#ff7c07"/><stop offset="0.12" stop-color="#cf6506"/><stop offset="0.3" stop-color="#914704"/><stop offset="0.48" stop-color="#5d2d03"/><stop offset="0.64" stop-color="#351a01"/><stop offset="0.78" stop-color="#180c01"/><stop offset="0.91" stop-color="#060300"/><stop offset="1"/></radialGradient><radialGradient id="Áåçûìÿííûé_ãðàäèåíò_385" cx="1525.36" cy="1144.31" r="157.68" gradientTransform="matrix(-1.69, 0, 0, 1, 2839.28, -563.57)" gradientUnits="userSpaceOnUse"><stop offset="0" stop-color="red"/><stop offset="0.22" stop-color="#bc0000"/><stop offset="0.5" stop-color="#6c0000"/><stop offset="0.74" stop-color="#320000"/><stop offset="0.91" stop-color="#0e0000"/><stop offset="1"/></radialGradient><linearGradient id="Áåçûìÿííûé_ãðàäèåíò_402" x1="1443.1" y1="1103.21" x2="1443.1" y2="563.57" gradientTransform="matrix(-1, 0, 0, 1, 3162, 0)" gradientUnits="userSpaceOnUse"><stop offset="0" stop-color="#a18c89"/><stop offset="0.28" stop-color="#6b5d5b"/><stop offset="0.62" stop-color="#322b2a"/><stop offset="0.87" stop-color="#0e0c0c"/><stop offset="1"/></linearGradient></defs><title>2112_w026_n002_1228b_p1_1228_ss [Converted]</title><g class="cls-1"><g id="cave"><g class="cls-2"><polygon class="cls-3" points="354.45 561.83 354.45 596.49 198.06 603.47 195.39 580.6 354.45 561.83"/><path class="cls-4" d="M1920.64,1173.91s21.91-2.28,23.68-28.46l-144.44-38-19.72,1.94-18.41,46,39.66,5.85Z" transform="translate(-1506.01 -563.57)"/><polygon class="cls-5" points="293.86 543.89 304.13 598.59 255.73 591.81 274.14 545.83 293.86 543.89"/><path class="cls-6" d="M1803.3,1161.2s-3.74-40.94-13.44-46.37-23.1,41.25-23.1,41.25l2.57.6s10-39.71,18.61-40,13.47,44.56,13.47,44.56Z" transform="translate(-1506.01 -563.57)"/><path class="cls-6" d="M1798,1160.45s-6.24-30.18-11.2-30.59-13.64,26.85-13.64,26.85l2,.64s6.6-24.22,10.2-25,10.8,28.07,10.8,28.07Z" transform="translate(-1506.01 -563.57)"/><path class="cls-7" d="M1634.43,1178.27l-21.89-7,106.77-70.45s20.34,1.39,32.41,5.73Z" transform="translate(-1506.01 -563.57)"/><path class="cls-8" d="M1698.47,1185.27s-69.6,6.63-87.71-3.08l147.21-90s16.58-3.27,30.57,16.25Z" transform="translate(-1506.01 -563.57)"/><path class="cls-9" d="M1924.43,1180.07s-8.84-18.76-29-27.16l-182.89-4.69s-21.21,15.9-21.21,37.64Z" transform="translate(-1506.01 -563.57)"/><path class="cls-10" d="M1712.56,1148.22s25.45,2.43,36.58,36.2l-57.79,1.44S1694.27,1159.09,1712.56,1148.22Z" transform="translate(-1506.01 -563.57)"/><path class="cls-11" d="M1741.71,1184.53s-14.91-27-26.77-27-18.28,28.23-18.28,28.23l1.94,0s5.3-25.62,16.08-25.62,24.9,24.6,24.9,24.6Z" transform="translate(-1506.01 -563.57)"/><path class="cls-11" d="M1727.75,1185s-7.77-13.69-13.43-13.69-9.18,14.2-9.18,14.2h2.74s1.87-12,6.4-12,11.86,11.59,11.86,11.59Z" transform="translate(-1506.01 -563.57)"/><path class="cls-12" d="M1710.44,1106.34l-97.9,65,103.9-64.37S1712.27,1106.34,1710.44,1106.34Z" transform="translate(-1506.01 -563.57)"/><polygon class="cls-3" points="282.53 544.91 238.26 582.65 240.66 575.26 228.98 571.24 176.12 588.14 202.88 575.26 199.12 566.53 182.28 571.24 251.96 528.67 260.75 526.39 267.11 521 293.86 523.59 297.28 527.66 282.53 539.64 282.53 544.91"/><polygon class="cls-3" points="357.69 560.15 307.69 515.39 301.88 515.39 297.28 520.8 312.09 543.89 311.27 548.47 357.69 560.15"/><polygon class="cls-13" points="236.7 585.42 247.94 574.4 250.96 574.4 263.44 572.57 261.21 578.12 274.92 582.65 301.52 584.65 323.77 587.66 357.69 584.65 367.58 563.28 369.09 563.68 360.26 580.73 361.46 582.65 373.97 587.66 384 583.72 380.93 572.34 375.52 565.37 377.63 565.92 382.13 573.24 384.83 585.67 373.59 588.93 236.7 585.42"/><path class="cls-13" d="M1810.15,1182.91l29.33-15.87,39.75-4.88,38.92,8.29.9,1.16s-28.9-8.45-43.41-7.84-35.56,7.09-35.56,7.09,2.92,9.63,16,10.91l-5.11.28-9.58-6.29s-3.2-4-7.2-3.23-21.17,10.38-21.17,10.38Z" transform="translate(-1506.01 -563.57)"/><path class="cls-13" d="M1900.16,1133.84s28.72,14.56,36.87,31.06l.65-.8s-11.8-18.6-33.57-29.22Z" transform="translate(-1506.01 -563.57)"/><path class="cls-13" d="M1682.13,1185.86s-3.37-10.14-8.46-16.72-27.34-8.69-27.34-8.69l.79-.48s20.46,3.4,22.65,3.8,1.61-18.63,1.61-18.63l1.36-.83s.73,17.59,2.13,20.78,19.25,8.82,19.25,8.82-2.46,8.66-2.77,11.95Z" transform="translate(-1506.01 -563.57)"/><path class="cls-13" d="M1632.1,1169.14a91,91,0,0,1,6.41,18.34h-3.2s.49-10.21-5.47-17Z" transform="translate(-1506.01 -563.57)"/><polygon class="cls-14" points="279.02 586.51 277.06 582.81 262.3 578.48 243.13 582.49 236.7 585.42 279.02 586.51"/><polygon class="cls-15" points="339.66 603.47 333.41 607.25 333.11 608.64 325.67 608.97 320.98 610.94 333.66 603.9 339.66 603.47"/><polygon class="cls-15" points="342.73 603.47 344.97 602.75 349.39 602.75 342.73 603.47"/><polygon class="cls-15" points="361.23 586.51 359.36 585.82 349.39 586.16 350.29 588.14 359.21 588.14 361.23 586.51"/><polygon class="cls-15" points="365.87 585.82 363.83 586.42 360.78 584.65 360.78 583.42 363.93 584.12 365.87 585.82"/><polygon class="cls-15" points="365.87 586.98 365.48 586.98 364.68 588.03 365.87 588.03 365.87 586.98"/><polygon class="cls-15" points="279.02 586.51 274.92 582.65 266.6 581.59 260.75 586.51 279.02 586.51"/><polygon class="cls-15" points="186.19 614.7 181.84 608.97 174.85 608.97 180.52 622.64 185.34 622.29 186.19 614.7"/><polygon class="cls-15" points="172.65 607.69 170.85 605.58 167.03 604.88 170.65 607.74 172.65 607.69"/><polygon class="cls-3" points="274.92 625.89 263.54 610.35 255.73 604.88 221.74 610.35 202.88 626.58 260.75 626.58 274.92 625.89"/><polygon class="cls-13" points="291.94 523.41 282.53 539.64 297.28 527.66 293.86 523.59 291.94 523.41"/><polygon class="cls-16" points="307.69 515.39 316.58 540.66 312.09 543.89 297.28 520.8 301.88 515.39 307.69 515.39"/><ellipse class="cls-17" cx="270.72" cy="581.35" rx="155.42" ry="92.13"/><ellipse class="cls-18" cx="266" cy="580.74" rx="266" ry="157.68"/><path class="cls-19" d="M1766,995.34l1.76,3a4.09,4.09,0,0,1-5.85.05,3.58,3.58,0,0,1,1.3-5.47c2.07-.75,4.61,1.44,4,3.56Z" transform="translate(-1506.01 -563.57)"/><path class="cls-19" d="M1795.73,1066.59a2.08,2.08,0,0,0,.17-1c-2-1-5.12,1.66-2.92,3.61.73.65,2.54,1,3.26,0s-.64-1.77-.31-2.8Z" transform="translate(-1506.01 -563.57)"/><path class="cls-19" d="M1784.14,1065.39a4.86,4.86,0,0,0-1.89.78c.8.6,2.77.17,2.25-1.14s-2.5-.37-2,.76Z" transform="translate(-1506.01 -563.57)"/><path class="cls-19" d="M1846.67,1024.83c.23,1.8-1.42,2-2.77,1.77-.33-1.81,1.34-4.19,3-4.88a2.17,2.17,0,0,1-.4,2.91Z" transform="translate(-1506.01 -563.57)"/><path class="cls-19" d="M1726.61,1031c-.95-2-2.26-.12-1.86,1.19.34,1.1,2,2,3.08,2.21,4,.67,1.27-3.42-1-4Z" transform="translate(-1506.01 -563.57)"/><path class="cls-19" d="M1735.6,979.69a1.29,1.29,0,0,1-.58,1.63c-2.76-1.21.28-6.12,1-1.43Z" transform="translate(-1506.01 -563.57)"/><path class="cls-19" d="M1767.56,1082.37c-.61-2.43-4-2.46-3.18.1.51,1.49,2.06,1.26,2.78.1Z" transform="translate(-1506.01 -563.57)"/><path class="cls-20" d="M1788.54,1103.21s-34.45-20.5,3.68-54.14c2.66-2.34,62-49.21,68.24-62.39s28.17-71.41-66.12-66.57a20.11,20.11,0,0,0,11.05-15.5c.73-5.73-6.92-12.62-6.92-12.62s50.5-33.36,56.94-73.92S1831,711.8,1751.72,703.61s-56.82-41.16-9-53.14,52.57-59.93,9.45-86.9c0,0-7.43,63.36-43.26,92.21s-135.69,82-138.2,128.53,151.47,65.31,163.18,112.56-62.8,91.37-53.41,137.63S1788.54,1103.21,1788.54,1103.21Z" transform="translate(-1506.01 -563.57)"/></g></g></g></svg>