<svg xmlns="http://www.w3.org/2000/svg" xmlns:xlink="http://www.w3.org/1999/xlink" viewBox="0 0 1000 400"><defs><style>.cls-1{fill:none;}.cls-2{isolation:isolate;}.cls-3{clip-path:url(#clip-path);}.cls-10,.cls-100,.cls-101,.cls-102,.cls-103,.cls-104,.cls-105,.cls-106,.cls-107,.cls-108,.cls-11,.cls-12,.cls-13,.cls-14,.cls-15,.cls-16,.cls-17,.cls-18,.cls-25,.cls-26,.cls-35,.cls-36,.cls-37,.cls-38,.cls-39,.cls-4,.cls-40,.cls-41,.cls-42,.cls-43,.cls-44,.cls-45,.cls-46,.cls-47,.cls-48,.cls-49,.cls-5,.cls-50,.cls-52,.cls-53,.cls-54,.cls-55,.cls-56,.cls-57,.cls-58,.cls-59,.cls-6,.cls-60,.cls-61,.cls-62,.cls-63,.cls-64,.cls-65,.cls-66,.cls-67,.cls-68,.cls-69,.cls-70,.cls-71,.cls-72,.cls-73,.cls-74,.cls-75,.cls-76,.cls-77,.cls-78,.cls-79,.cls-80,.cls-81,.cls-82,.cls-83,.cls-84,.cls-85,.cls-86,.cls-87,.cls-88,.cls-89,.cls-9,.cls-90,.cls-91,.cls-92,.cls-93,.cls-94,.cls-95,.cls-96,.cls-97,.cls-98,.cls-99{fill-rule:evenodd;}.cls-4{fill:url(#Áåçûìÿííûé_ãðàäèåíò_50);}.cls-5{fill:url(#Áåçûìÿííûé_ãðàäèåíò_55);}.cls-108,.cls-19,.cls-20,.cls-21,.cls-22,.cls-23,.cls-24,.cls-25,.cls-26,.cls-27,.cls-29,.cls-30,.cls-31,.cls-32,.cls-33,.cls-35,.cls-36,.cls-37,.cls-38,.cls-39,.cls-44,.cls-45,.cls-46,.cls-47,.cls-48,.cls-49,.cls-50,.cls-58,.cls-59,.cls-6,.cls-60,.cls-61,.cls-63,.cls-65,.cls-66,.cls-7,.cls-8,.cls-9{opacity:0.5;}.cls-100,.cls-101,.cls-102,.cls-103,.cls-104,.cls-105,.cls-108,.cls-19,.cls-20,.cls-21,.cls-22,.cls-23,.cls-24,.cls-25,.cls-26,.cls-27,.cls-28,.cls-29,.cls-30,.cls-31,.cls-32,.cls-33,.cls-34,.cls-35,.cls-36,.cls-37,.cls-38,.cls-39,.cls-40,.cls-44,.cls-45,.cls-46,.cls-47,.cls-48,.cls-49,.cls-50,.cls-51,.cls-58,.cls-59,.cls-6,.cls-60,.cls-61,.cls-63,.cls-65,.cls-66,.cls-69,.cls-7,.cls-70,.cls-71,.cls-72,.cls-73,.cls-74,.cls-75,.cls-76,.cls-77,.cls-78,.cls-79,.cls-8,.cls-80,.cls-81,.cls-82,.cls-83,.cls-84,.cls-85,.cls-86,.cls-87,.cls-88,.cls-89,.cls-9,.cls-90,.cls-91,.cls-92,.cls-93,.cls-94,.cls-95,.cls-96,.cls-97,.cls-98,.cls-99{mix-blend-mode:multiply;}.cls-6{fill:url(#Áåçûìÿííûé_ãðàäèåíò_150);}.cls-7{fill:url(#Áåçûìÿííûé_ãðàäèåíò_150-2);}.cls-8{fill:url(#Áåçûìÿííûé_ãðàäèåíò_150-3);}.cls-9{fill:url(#Áåçûìÿííûé_ãðàäèåíò_150-4);}.cls-10{fill:#a26e71;}.cls-11{fill:#a29396;}.cls-11,.cls-12,.cls-15,.cls-41,.cls-42,.cls-43,.cls-62{mix-blend-mode:soft-light;}.cls-12{fill:#907f82;}.cls-13{fill:#644e52;}.cls-14{fill:#755559;}.cls-15{fill:#bba7a9;}.cls-16{fill:#271624;}.cls-17{fill:#24161e;}.cls-18{fill:#2c1b29;}.cls-19{fill:url(#Áåçûìÿííûé_ãðàäèåíò_150-5);}.cls-20{fill:url(#Áåçûìÿííûé_ãðàäèåíò_150-6);}.cls-21{fill:url(#Áåçûìÿííûé_ãðàäèåíò_150-7);}.cls-22{fill:url(#Áåçûìÿííûé_ãðàäèåíò_150-8);}.cls-23{fill:url(#Áåçûìÿííûé_ãðàäèåíò_150-9);}.cls-24{fill:url(#Áåçûìÿííûé_ãðàäèåíò_150-10);}.cls-25{fill:url(#Áåçûìÿííûé_ãðàäèåíò_150-11);}.cls-26{fill:url(#Áåçûìÿííûé_ãðàäèåíò_150-12);}.cls-27{fill:url(#Áåçûìÿííûé_ãðàäèåíò_150-13);}.cls-28,.cls-34,.cls-40{opacity:0.8;}.cls-28{fill:url(#Áåçûìÿííûé_ãðàäèåíò_150-14);}.cls-29{fill:url(#Áåçûìÿííûé_ãðàäèåíò_150-15);}.cls-30{fill:url(#Áåçûìÿííûé_ãðàäèåíò_150-16);}.cls-31{fill:url(#Áåçûìÿííûé_ãðàäèåíò_150-17);}.cls-32{fill:url(#Áåçûìÿííûé_ãðàäèåíò_150-18);}.cls-33{fill:url(#Áåçûìÿííûé_ãðàäèåíò_150-19);}.cls-34{fill:url(#Áåçûìÿííûé_ãðàäèåíò_150-20);}.cls-35{fill:url(#Áåçûìÿííûé_ãðàäèåíò_150-21);}.cls-36{fill:url(#Áåçûìÿííûé_ãðàäèåíò_150-22);}.cls-37{fill:url(#Áåçûìÿííûé_ãðàäèåíò_150-23);}.cls-38{fill:url(#Áåçûìÿííûé_ãðàäèåíò_150-24);}.cls-39{fill:url(#Áåçûìÿííûé_ãðàäèåíò_150-25);}.cls-40{fill:url(#Áåçûìÿííûé_ãðàäèåíò_150-26);}.cls-41{fill:#aa8b92;}.cls-42{fill:#b59aa0;}.cls-43{fill:#92959b;}.cls-44{fill:url(#Áåçûìÿííûé_ãðàäèåíò_150-27);}.cls-45{fill:url(#Áåçûìÿííûé_ãðàäèåíò_150-28);}.cls-46{fill:url(#Áåçûìÿííûé_ãðàäèåíò_150-29);}.cls-47{fill:url(#Áåçûìÿííûé_ãðàäèåíò_150-30);}.cls-48{fill:url(#Áåçûìÿííûé_ãðàäèåíò_150-31);}.cls-49{fill:url(#Áåçûìÿííûé_ãðàäèåíò_150-32);}.cls-50{fill:url(#Áåçûìÿííûé_ãðàäèåíò_150-33);}.cls-100,.cls-101,.cls-102,.cls-103,.cls-104,.cls-105,.cls-51,.cls-69,.cls-70,.cls-71,.cls-72,.cls-73,.cls-74,.cls-75,.cls-76,.cls-77,.cls-78,.cls-79,.cls-80,.cls-81,.cls-82,.cls-83,.cls-84,.cls-85,.cls-86,.cls-87,.cls-88,.cls-89,.cls-90,.cls-91,.cls-92,.cls-93,.cls-94,.cls-95,.cls-96,.cls-97,.cls-98,.cls-99{opacity:0.3;}.cls-51{fill:url(#Áåçûìÿííûé_ãðàäèåíò_150-34);}.cls-52{fill:#754d50;}.cls-53{fill:#4e3235;}.cls-54{fill:#4e3244;}.cls-55{fill:#3d2d44;}.cls-56{fill:#46374d;}.cls-57{fill:#463743;}.cls-58{fill:url(#Áåçûìÿííûé_ãðàäèåíò_150-35);}.cls-59{fill:url(#Áåçûìÿííûé_ãðàäèåíò_150-36);}.cls-60{fill:url(#Áåçûìÿííûé_ãðàäèåíò_150-37);}.cls-61{fill:url(#Áåçûìÿííûé_ãðàäèåíò_150-38);}.cls-62{fill:#b7acae;}.cls-63{fill:url(#Áåçûìÿííûé_ãðàäèåíò_150-39);}.cls-64{fill:#806266;}.cls-65{fill:url(#Áåçûìÿííûé_ãðàäèåíò_150-40);}.cls-66{fill:url(#Áåçûìÿííûé_ãðàäèåíò_150-41);}.cls-67{fill:#7a92d7;}.cls-68{fill:#aabdf9;}.cls-69{fill:url(#Áåçûìÿííûé_ãðàäèåíò_150-42);}.cls-70{fill:url(#Áåçûìÿííûé_ãðàäèåíò_150-43);}.cls-71{fill:url(#Áåçûìÿííûé_ãðàäèåíò_150-44);}.cls-72{fill:url(#Áåçûìÿííûé_ãðàäèåíò_150-45);}.cls-73{fill:url(#Áåçûìÿííûé_ãðàäèåíò_150-46);}.cls-74{fill:url(#Áåçûìÿííûé_ãðàäèåíò_150-47);}.cls-75{fill:url(#Áåçûìÿííûé_ãðàäèåíò_150-48);}.cls-76{fill:url(#Áåçûìÿííûé_ãðàäèåíò_150-49);}.cls-77{fill:url(#Áåçûìÿííûé_ãðàäèåíò_150-50);}.cls-78{fill:url(#Áåçûìÿííûé_ãðàäèåíò_150-51);}.cls-79{fill:url(#Áåçûìÿííûé_ãðàäèåíò_150-52);}.cls-80{fill:url(#Áåçûìÿííûé_ãðàäèåíò_150-53);}.cls-81{fill:url(#Áåçûìÿííûé_ãðàäèåíò_150-54);}.cls-82{fill:url(#Áåçûìÿííûé_ãðàäèåíò_150-55);}.cls-83{fill:url(#Áåçûìÿííûé_ãðàäèåíò_150-56);}.cls-84{fill:url(#Áåçûìÿííûé_ãðàäèåíò_150-57);}.cls-85{fill:url(#Áåçûìÿííûé_ãðàäèåíò_150-58);}.cls-86{fill:url(#Áåçûìÿííûé_ãðàäèåíò_150-59);}.cls-87{fill:url(#Áåçûìÿííûé_ãðàäèåíò_150-60);}.cls-88{fill:url(#Áåçûìÿííûé_ãðàäèåíò_150-61);}.cls-89{fill:url(#Áåçûìÿííûé_ãðàäèåíò_150-62);}.cls-90{fill:url(#Áåçûìÿííûé_ãðàäèåíò_150-63);}.cls-91{fill:url(#Áåçûìÿííûé_ãðàäèåíò_150-64);}.cls-92{fill:url(#Áåçûìÿííûé_ãðàäèåíò_150-65);}.cls-93{fill:url(#Áåçûìÿííûé_ãðàäèåíò_150-66);}.cls-94{fill:url(#Áåçûìÿííûé_ãðàäèåíò_150-67);}.cls-95{fill:url(#Áåçûìÿííûé_ãðàäèåíò_150-68);}.cls-96{fill:url(#Áåçûìÿííûé_ãðàäèåíò_150-69);}.cls-97{fill:url(#Áåçûìÿííûé_ãðàäèåíò_150-70);}.cls-98{fill:url(#Áåçûìÿííûé_ãðàäèåíò_150-71);}.cls-99{fill:url(#Áåçûìÿííûé_ãðàäèåíò_150-72);}.cls-100{fill:url(#Áåçûìÿííûé_ãðàäèåíò_150-73);}.cls-101{fill:url(#Áåçûìÿííûé_ãðàäèåíò_150-74);}.cls-102{fill:url(#Áåçûìÿííûé_ãðàäèåíò_150-75);}.cls-103{fill:url(#Áåçûìÿííûé_ãðàäèåíò_150-76);}.cls-104{fill:url(#Áåçûìÿííûé_ãðàäèåíò_150-77);}.cls-105{fill:url(#Áåçûìÿííûé_ãðàäèåíò_150-78);}.cls-106{fill:#e1e8fd;}.cls-107{fill:#e09c6f;}.cls-108{fill:url(#Áåçûìÿííûé_ãðàäèåíò_150-79);}</style><clipPath id="clip-path"><rect class="cls-1" width="1000" height="400"/></clipPath><linearGradient id="Áåçûìÿííûé_ãðàäèåíò_50" x1="616.97" y1="293.8" x2="616.97" y2="-0.04" gradientUnits="userSpaceOnUse"><stop offset="0" stop-color="#382c44"/><stop offset="1" stop-color="#594c4c"/></linearGradient><linearGradient id="Áåçûìÿííûé_ãðàäèåíò_55" x1="644.95" y1="264.53" x2="644.95" y2="173.04" gradientUnits="userSpaceOnUse"><stop offset="0" stop-color="#22161f"/><stop offset="1" stop-color="#0b0015"/></linearGradient><linearGradient id="Áåçûìÿííûé_ãðàäèåíò_150" x1="474.46" y1="46.63" x2="551.31" y2="46.63" gradientUnits="userSpaceOnUse"><stop offset="0" stop-color="#9d7c90"/><stop offset="1" stop-color="#775477"/></linearGradient><linearGradient id="Áåçûìÿííûé_ãðàäèåíò_150-2" x1="464.67" y1="146.9" x2="871.71" y2="146.9" xlink:href="#Áåçûìÿííûé_ãðàäèåíò_150"/><linearGradient id="Áåçûìÿííûé_ãðàäèåíò_150-3" x1="464.47" y1="159.67" x2="871.15" y2="159.67" xlink:href="#Áåçûìÿííûé_ãðàäèåíò_150"/><linearGradient id="Áåçûìÿííûé_ãðàäèåíò_150-4" x1="733.68" y1="133.89" x2="1000.17" y2="133.89" xlink:href="#Áåçûìÿííûé_ãðàäèåíò_150"/><linearGradient id="Áåçûìÿííûé_ãðàäèåíò_150-5" x1="549.49" y1="207.91" x2="623.08" y2="207.91" xlink:href="#Áåçûìÿííûé_ãðàäèåíò_150"/><linearGradient id="Áåçûìÿííûé_ãðàäèåíò_150-6" x1="570.02" y1="253.9" x2="648.64" y2="253.9" xlink:href="#Áåçûìÿííûé_ãðàäèåíò_150"/><linearGradient id="Áåçûìÿííûé_ãðàäèåíò_150-7" x1="403.89" y1="227.04" x2="475.61" y2="227.04" xlink:href="#Áåçûìÿííûé_ãðàäèåíò_150"/><linearGradient id="Áåçûìÿííûé_ãðàäèåíò_150-8" x1="576.15" y1="57.26" x2="759.73" y2="57.26" xlink:href="#Áåçûìÿííûé_ãðàäèåíò_150"/><linearGradient id="Áåçûìÿííûé_ãðàäèåíò_150-9" x1="644.36" y1="98.89" x2="727.51" y2="98.89" xlink:href="#Áåçûìÿííûé_ãðàäèåíò_150"/><linearGradient id="Áåçûìÿííûé_ãðàäèåíò_150-10" x1="669.64" y1="159.78" x2="759.73" y2="159.78" xlink:href="#Áåçûìÿííûé_ãðàäèåíò_150"/><linearGradient id="Áåçûìÿííûé_ãðàäèåíò_150-11" x1="816.64" y1="166.21" x2="850.2" y2="166.21" xlink:href="#Áåçûìÿííûé_ãðàäèåíò_150"/><linearGradient id="Áåçûìÿííûé_ãðàäèåíò_150-12" x1="799.38" y1="79.33" x2="832.81" y2="79.33" xlink:href="#Áåçûìÿííûé_ãðàäèåíò_150"/><linearGradient id="Áåçûìÿííûé_ãðàäèåíò_150-13" x1="792.53" y1="30.65" x2="831.5" y2="30.65" xlink:href="#Áåçûìÿííûé_ãðàäèåíò_150"/><linearGradient id="Áåçûìÿííûé_ãðàäèåíò_150-14" x1="758.19" y1="111.91" x2="774.91" y2="111.91" xlink:href="#Áåçûìÿííûé_ãðàäèåíò_150"/><linearGradient id="Áåçûìÿííûé_ãðàäèåíò_150-15" x1="548.29" y1="88.44" x2="573.6" y2="88.44" xlink:href="#Áåçûìÿííûé_ãðàäèåíò_150"/><linearGradient id="Áåçûìÿííûé_ãðàäèåíò_150-16" x1="584.99" y1="62.32" x2="588.56" y2="62.32" xlink:href="#Áåçûìÿííûé_ãðàäèåíò_150"/><linearGradient id="Áåçûìÿííûé_ãðàäèåíò_150-17" x1="492.9" y1="154.21" x2="510.68" y2="154.21" xlink:href="#Áåçûìÿííûé_ãðàäèåíò_150"/><linearGradient id="Áåçûìÿííûé_ãðàäèåíò_150-18" x1="581.13" y1="166.43" x2="594.41" y2="166.43" xlink:href="#Áåçûìÿííûé_ãðàäèåíò_150"/><linearGradient id="Áåçûìÿííûé_ãðàäèåíò_150-19" x1="603.93" y1="165.36" x2="609.32" y2="165.36" xlink:href="#Áåçûìÿííûé_ãðàäèåíò_150"/><linearGradient id="Áåçûìÿííûé_ãðàäèåíò_150-20" x1="851.3" y1="66.94" x2="891.37" y2="66.94" xlink:href="#Áåçûìÿííûé_ãðàäèåíò_150"/><linearGradient id="Áåçûìÿííûé_ãðàäèåíò_150-21" x1="729" y1="135.36" x2="759.73" y2="135.36" xlink:href="#Áåçûìÿííûé_ãðàäèåíò_150"/><linearGradient id="Áåçûìÿííûé_ãðàäèåíò_150-22" x1="660.84" y1="97.06" x2="706.31" y2="97.06" xlink:href="#Áåçûìÿííûé_ãðàäèåíò_150"/><linearGradient id="Áåçûìÿííûé_ãðàäèåíò_150-23" x1="592.07" y1="29.7" x2="635.2" y2="29.7" xlink:href="#Áåçûìÿííûé_ãðàäèåíò_150"/><linearGradient id="Áåçûìÿííûé_ãðàäèåíò_150-24" x1="513.42" y1="56.83" x2="513.42" y2="38.52" xlink:href="#Áåçûìÿííûé_ãðàäèåíò_150"/><linearGradient id="Áåçûìÿííûé_ãðàäèåíò_150-25" x1="537.6" y1="44.77" x2="537.6" y2="22.73" xlink:href="#Áåçûìÿííûé_ãðàäèåíò_150"/><linearGradient id="Áåçûìÿííûé_ãðàäèåíò_150-26" x1="659.3" y1="264.53" x2="659.3" y2="174.05" xlink:href="#Áåçûìÿííûé_ãðàäèåíò_150"/><linearGradient id="Áåçûìÿííûé_ãðàäèåíò_150-27" x1="674.69" y1="37.17" x2="754.95" y2="37.17" xlink:href="#Áåçûìÿííûé_ãðàäèåíò_150"/><linearGradient id="Áåçûìÿííûé_ãðàäèåíò_150-28" x1="853.13" y1="133.51" x2="1000.17" y2="133.51" xlink:href="#Áåçûìÿííûé_ãðàäèåíò_150"/><linearGradient id="Áåçûìÿííûé_ãðàäèåíò_150-29" x1="903.34" y1="64.38" x2="903.34" y2="0" xlink:href="#Áåçûìÿííûé_ãðàäèåíò_150"/><linearGradient id="Áåçûìÿííûé_ãðàäèåíò_150-30" x1="954.69" y1="175.87" x2="1000.17" y2="175.87" xlink:href="#Áåçûìÿííûé_ãðàäèåíò_150"/><linearGradient id="Áåçûìÿííûé_ãðàäèåíò_150-31" x1="911.59" y1="176.49" x2="970.03" y2="176.49" xlink:href="#Áåçûìÿííûé_ãðàäèåíò_150"/><linearGradient id="Áåçûìÿííûé_ãðàäèåíò_150-32" x1="890.26" y1="44.1" x2="916.41" y2="44.1" xlink:href="#Áåçûìÿííûé_ãðàäèåíò_150"/><linearGradient id="Áåçûìÿííûé_ãðàäèåíò_150-33" x1="962.45" y1="102.85" x2="1000.17" y2="102.85" xlink:href="#Áåçûìÿííûé_ãðàäèåíò_150"/><linearGradient id="Áåçûìÿííûé_ãðàäèåíò_150-34" x1="329.89" y1="251.11" x2="368.78" y2="251.11" xlink:href="#Áåçûìÿííûé_ãðàäèåíò_150"/><linearGradient id="Áåçûìÿííûé_ãðàäèåíò_150-35" x1="656.47" y1="38.75" x2="694.85" y2="38.75" xlink:href="#Áåçûìÿííûé_ãðàäèåíò_150"/><linearGradient id="Áåçûìÿííûé_ãðàäèåíò_150-36" x1="597.72" y1="27.42" x2="627.56" y2="27.42" xlink:href="#Áåçûìÿííûé_ãðàäèåíò_150"/><linearGradient id="Áåçûìÿííûé_ãðàäèåíò_150-37" x1="559.34" y1="195.31" x2="623.08" y2="195.31" xlink:href="#Áåçûìÿííûé_ãðàäèåíò_150"/><linearGradient id="Áåçûìÿííûé_ãðàäèåíò_150-38" x1="701.29" y1="190.16" x2="727.94" y2="190.16" xlink:href="#Áåçûìÿííûé_ãðàäèåíò_150"/><linearGradient id="Áåçûìÿííûé_ãðàäèåíò_150-39" x1="738.08" y1="212.36" x2="790.33" y2="212.36" xlink:href="#Áåçûìÿííûé_ãðàäèåíò_150"/><linearGradient id="Áåçûìÿííûé_ãðàäèåíò_150-40" x1="858.04" y1="33.56" x2="871.71" y2="33.56" xlink:href="#Áåçûìÿííûé_ãðàäèåíò_150"/><linearGradient id="Áåçûìÿííûé_ãðàäèåíò_150-41" x1="538.88" y1="164.47" x2="569.48" y2="164.47" xlink:href="#Áåçûìÿííûé_ãðàäèåíò_150"/><linearGradient id="Áåçûìÿííûé_ãðàäèåíò_150-42" x1="470.76" y1="289.76" x2="470.76" y2="138.63" xlink:href="#Áåçûìÿííûé_ãðàäèåíò_150"/><linearGradient id="Áåçûìÿííûé_ãðàäèåíò_150-43" x1="649.89" y1="109" x2="649.89" y2="71.48" xlink:href="#Áåçûìÿííûé_ãðàäèåíò_150"/><linearGradient id="Áåçûìÿííûé_ãðàäèåíò_150-44" x1="574.78" y1="129.84" x2="574.78" y2="111.91" xlink:href="#Áåçûìÿííûé_ãðàäèåíò_150"/><linearGradient id="Áåçûìÿííûé_ãðàäèåíò_150-45" x1="637.39" y1="122.87" x2="637.39" y2="0" xlink:href="#Áåçûìÿííûé_ãðàäèåíò_150"/><linearGradient id="Áåçûìÿííûé_ãðàäèåíò_150-46" x1="606.14" y1="79.33" x2="606.14" y2="46.63" xlink:href="#Áåçûìÿííûé_ãðàäèåíò_150"/><linearGradient id="Áåçûìÿííûé_ãðàäèåíò_150-47" x1="566.96" y1="104.26" x2="566.96" y2="91.36" xlink:href="#Áåçûìÿííûé_ãðàäèåíò_150"/><linearGradient id="Áåçûìÿííûé_ãðàäèåíò_150-48" x1="602.02" y1="100.03" x2="602.02" y2="67.88" xlink:href="#Áåçûìÿííûé_ãðàäèåíò_150"/><linearGradient id="Áåçûìÿííûé_ãðàäèåíò_150-49" x1="445.63" y1="152.08" x2="445.63" y2="126.05" xlink:href="#Áåçûìÿííûé_ãðàäèåíò_150"/><linearGradient id="Áåçûìÿííûé_ãðàäèåíò_150-50" x1="381.89" y1="174.75" x2="381.89" y2="157.13" xlink:href="#Áåçûìÿííûé_ãðàäèåíò_150"/><linearGradient id="Áåçûìÿííûé_ãðàäèåíò_150-51" x1="348.81" y1="183.46" x2="348.81" y2="176.07" xlink:href="#Áåçûìÿííûé_ãðàäèåíò_150"/><linearGradient id="Áåçûìÿííûé_ãðàäèåíò_150-52" x1="336.91" y1="291.01" x2="336.91" y2="257.67" xlink:href="#Áåçûìÿííûé_ãðàäèåíò_150"/><linearGradient id="Áåçûìÿííûé_ãðàäèåíò_150-53" x1="316.14" y1="280.87" x2="316.14" y2="270.87" xlink:href="#Áåçûìÿííûé_ãðàäèåíò_150"/><linearGradient id="Áåçûìÿííûé_ãðàäèåíò_150-54" x1="772.7" y1="79.33" x2="772.7" y2="66.18" xlink:href="#Áåçûìÿííûé_ãðàäèåíò_150"/><linearGradient id="Áåçûìÿííûé_ãðàäèåíò_150-55" x1="805.14" y1="61.43" x2="805.14" y2="50.03" xlink:href="#Áåçûìÿííûé_ãðàäèåíò_150"/><linearGradient id="Áåçûìÿííûé_ãðàäèåíò_150-56" x1="771.56" y1="61.59" x2="771.56" y2="54.05" xlink:href="#Áåçûìÿííûé_ãðàäèåíò_150"/><linearGradient id="Áåçûìÿííûé_ãðàäèåíò_150-57" x1="803.1" y1="148.79" x2="803.1" y2="138.63" xlink:href="#Áåçûìÿííûé_ãðàäèåíò_150"/><linearGradient id="Áåçûìÿííûé_ãðàäèåíò_150-58" x1="796.82" y1="135.36" x2="796.82" y2="123.88" xlink:href="#Áåçûìÿííûé_ãðàäèåíò_150"/><linearGradient id="Áåçûìÿííûé_ãðàäèåíò_150-59" x1="764.36" y1="159.67" x2="764.36" y2="145.51" xlink:href="#Áåçûìÿííûé_ãðàäèåíò_150"/><linearGradient id="Áåçûìÿííûé_ãðàäèåíò_150-60" x1="703.37" y1="70.35" x2="703.37" y2="52.28" xlink:href="#Áåçûìÿííûé_ãðàäèåíò_150"/><linearGradient id="Áåçûìÿííûé_ãðàäèåíò_150-61" x1="687.85" y1="97.06" x2="687.85" y2="76.22" xlink:href="#Áåçûìÿííûé_ãðàäèåíò_150"/><linearGradient id="Áåçûìÿííûé_ãðàäèåíò_150-62" x1="718.17" y1="74.25" x2="718.17" y2="50.64" xlink:href="#Áåçûìÿííûé_ãðàäèåíò_150"/><linearGradient id="Áåçûìÿííûé_ãðàäèåíò_150-63" x1="569.74" y1="57.28" x2="569.74" y2="32.26" xlink:href="#Áåçûìÿííûé_ãðàäèåíò_150"/><linearGradient id="Áåçûìÿííûé_ãðàäèåíò_150-64" x1="557.53" y1="63.03" x2="557.53" y2="50.64" xlink:href="#Áåçûìÿííûé_ãðàäèåíò_150"/><linearGradient id="Áåçûìÿííûé_ãðàäèåíò_150-65" x1="525.76" y1="67.88" x2="525.76" y2="64.41" xlink:href="#Áåçûìÿííûé_ãðàäèåíò_150"/><linearGradient id="Áåçûìÿííûé_ãðàäèåíò_150-66" x1="545.78" y1="74.25" x2="545.78" y2="70.54" xlink:href="#Áåçûìÿííûé_ãðàäèåíò_150"/><linearGradient id="Áåçûìÿííûé_ãðàäèåíò_150-67" x1="927.68" y1="79.33" x2="927.68" y2="67.03" xlink:href="#Áåçûìÿííûé_ãðàäèåíò_150"/><linearGradient id="Áåçûìÿííûé_ãðàäèåíò_150-68" x1="930.14" y1="87.87" x2="930.14" y2="70.22" xlink:href="#Áåçûìÿííûé_ãðàäèåíò_150"/><linearGradient id="Áåçûìÿííûé_ãðàäèåíò_150-69" x1="872.89" y1="115.82" x2="872.89" y2="91.75" xlink:href="#Áåçûìÿííûé_ãðàäèåíò_150"/><linearGradient id="Áåçûìÿííûé_ãðàäèåíò_150-70" x1="869.25" y1="145.35" x2="869.25" y2="102.85" xlink:href="#Áåçûìÿííûé_ãðàäèåíò_150"/><linearGradient id="Áåçûìÿííûé_ãðàäèåíò_150-71" x1="904.81" y1="120.36" x2="904.81" y2="106.92" xlink:href="#Áåçûìÿííûé_ãðàäèåíò_150"/><linearGradient id="Áåçûìÿííûé_ãðàäèåíò_150-72" x1="905.12" y1="127.94" x2="905.12" y2="111.27" xlink:href="#Áåçûìÿííûé_ãðàäèåíò_150"/><linearGradient id="Áåçûìÿííûé_ãðàäèåíò_150-73" x1="864.54" y1="171.27" x2="864.54" y2="138.63" xlink:href="#Áåçûìÿííûé_ãðàäèåíò_150"/><linearGradient id="Áåçûìÿííûé_ãðàäèåíò_150-74" x1="860.18" y1="179.61" x2="860.18" y2="166.21" xlink:href="#Áåçûìÿííûé_ãðàäèåíò_150"/><linearGradient id="Áåçûìÿííûé_ãðàäèåíò_150-75" x1="914" y1="193.88" x2="914" y2="175.87" xlink:href="#Áåçûìÿííûé_ãðàäèåíò_150"/><linearGradient id="Áåçûìÿííûé_ãðàäèåíò_150-76" x1="925.78" y1="208.28" x2="925.78" y2="187.82" xlink:href="#Áåçûìÿííûé_ãðàäèåíò_150"/><linearGradient id="Áåçûìÿííûé_ãðàäèåíò_150-77" x1="921.1" y1="221.67" x2="921.1" y2="195.27" xlink:href="#Áåçûìÿííûé_ãðàäèåíò_150"/><linearGradient id="Áåçûìÿííûé_ãðàäèåíò_150-78" x1="928.41" y1="248.42" x2="928.41" y2="205.27" xlink:href="#Áåçûìÿííûé_ãðàäèåíò_150"/><linearGradient id="Áåçûìÿííûé_ãðàäèåíò_150-79" x1="810.18" y1="267.78" x2="810.18" y2="250.69" xlink:href="#Áåçûìÿííûé_ãðàäèåíò_150"/></defs><title>Artboard 6</title><g class="cls-2"><g id="cave_01"><g class="cls-3"><path class="cls-4" d="M605.55,0l-12,8.62-9.51,8L551.31,32.07l-5.85-2L526.3,22.73s-20.95,3.94-21.85,5-15.89,18.66-15.89,18.66l-14.1,24.16s-22.61,22.07-22.61,23.59v9.75l4.92,6.45-10,15-34.73,24L359.39,169s-26.21,12.52-27.27,13-23.69,33.57-24.29,35.4-17.48,45-17.48,45l-33.75,2.28-3.83,3-19,26H364.19l-1-4,56.36-4.93,42.93-9.09,2-3,203.18-9.48,332.52,4.55L1000,0Z"/><path class="cls-5" d="M731.44,264.53l2.4-35.78-5.9-18.19s-25.67-35.37-26.65-36.51-9-1-9-1-80.72,18.57-89.57,23.31-24.74,16.1-26.54,18.19-20.16,27.28-20.16,27.28l43.42,6.25,15.08-1.7,2.46.76,31.62,17Z"/><path class="cls-6" d="M526.3,22.73l-2.41,11.62L494.62,52.54l-11,2.36-9.13,15.64,20.81-6.13s40.86-17.56,45.88-20.72,10.16-11.62,10.16-11.62Z"/><path class="cls-7" d="M457.15,237.84l17.15-43.58,22-21.22,14.42-21,34.78-13.45s44.85,8.26,51.73,6.88,46.75-19.58,46.75-19.58,17.81-8.85,23.82-10.11,31.35-4.17,31.35-4.17l3.27-5.59,9-15.42,45.36-26.73,14.91-9.67,4.43-.19,51-21.72L871.71,0H810.53l-2.3,5.93L786.11,33.21s-21,12.88-30,17.43S723,65.77,723,65.77l4.49-13.49-9.18,14.66s-46.53,39.66-69,50.52-68.38,14.66-75.37,14.66-25.23-2.28-25.23-2.28L655.85,70.35,685,61.25l-28.83,4.93L616.52,81l58.17-34.49,12.62-18.75,17-6.26L739.09,5.55,750.56,4l9.17-4L725.65.23s-54.4,38.29-69.15,38.29-50.13-8.34-48.33-10.43S635.2.36,635.2.36L605.38.4l-1.31,27.13S578.29,72,565.18,76.79s-92.35,26.72-92.35,26.72L454.31,98l-2.46-3.88v9.75l4.92,6.45-10,15-34.73,24,63.57-23.24,7.21,2.28v7.76s-12.45,25.2-15.07,28.24S442.19,173,442.19,173s-58.66,68.72-60.41,70.74-13,17.81-13,17.81l-4.81,27-3.71-4-31,1.64s-60.74-4.29-63.58-5.3-9.39-12.26-9.39-12.26l-3.5-.88-19,26H364.19l-1-4,56.36-4.93,42.93-9.09,2-3-10.16-24.26Z"/><path class="cls-8" d="M774.91,90.18l-30.36,5.56-42.17,10.32S739,99.81,749.14,99,764,99,764,99l-4.26,10-27.85,29.63s-16.72,4.49-37,8.27S567,154.47,567,154.47l-18.68,8.72-11.14,19.7L606,178l17-1.9-67,23.93-29.33,5.63-21,9.85-5.24,23.88-19.34,13.26,17.7-9.28,45.06-9.29,4.59,3.22-9.34,14.21L532.14,256l-17,4.36H474.63l1.31-4.74,2.13-1.51-6.39,4-7.21,14.59,184.17-8.59-31.62-17-17.54.94-6.77,4.55H570.65l-10.93-7.83,4.35-1.82-8-1.15,20.16-27.28,35.06-21.29L692.33,173l9,1,26.65,36.51,5.9,18.19-2.4,35.78,25.36.51-12.91-12.42,7.43-21.47-.44-4.8-3.27-7.57s-11.8-14.84-15.3-32.94l.22-12.8h8.09l8.73,3.54-15.51-10.11v-2.78S749.9,140.07,766.61,134l5.9-1.89L799.38,112l27.86-41.49,5.57-18.26V46.63s-13.6,15.95-16.71,19.55S774.91,90.18,774.91,90.18Z"/><path class="cls-9" d="M1000,0H891.37l-2,98-7.75,57-28.51,62.4-12.46-2.89-1-9.68L857.06,99,863,34,848.21,75.65l-5.79,60.51V146.9l-4.15,38.77S824.35,208.73,823,210.32s-20.1,0-20.1,0L798.51,200l-7.22-43.88-37.13,20.46,2.62,31.7-23.1,56.25h26.05l240.44,3.25ZM954.69,256.29,905,247.22l-8.39-7.48-14.34-70,3.54-15.55,7.82-60L903,85.76l9.4,2.44,44.92,132.48,2.27,33.22Zm6.84-42.13L906.37,70.35l-1.58-8.92L908.33,15l4.54-1.57L954.69,84l17.8,90.09Z"/><path class="cls-10" d="M307.83,217.44l29.05-5h2.41s-7.17-23.68-7.17-30.41Z"/><polygon class="cls-10" points="350.94 173.04 411.6 156.12 432.57 152.08 434.98 149.8 442.84 140.71 475.61 126.05 412.04 149.29 359.38 169 350.94 173.04"/><path class="cls-11" d="M442.19,173l-9.62-21,10.27-11.37,32.77-14.66,7.21,2.28v7.76l-15.07,28.24S458.13,169.5,442.19,173Z"/><path class="cls-12" d="M381.78,243.78l-16.06,4.55h-4.37l-22.06-35.88s-5.38-16.61-7.17-30.41l18.82-9,60.66-16.92,21-4,9.62,21Z"/><polygon class="cls-11" points="361.35 248.33 364.19 254.52 368.78 261.59 381.78 243.78 365.72 248.33 361.35 248.33"/><polygon class="cls-11" points="306.73 261.59 306.73 229.88 307.83 217.44 290.35 262.47 306.73 261.59"/><path class="cls-13" d="M360.26,284.58l-24.69-4.93-27.74-18.06h-1.1l-16.38.88-33.75,2.28-.33,3.91s6.33,10.61,9.39,12.26,63.58,5.3,63.58,5.3Z"/><polygon class="cls-14" points="256.6 264.75 256.27 268.66 252.77 267.78 256.6 264.75"/><polygon class="cls-14" points="504.45 27.72 523.89 34.35 526.3 22.73 504.45 27.72"/><path class="cls-10" d="M474.46,70.54,457.15,96.37,454.31,98l-2.46-3.88S465.34,77.8,474.46,70.54Z"/><polygon class="cls-14" points="510.68 152.08 540 152.08 545.46 152.08 564.58 146.9 545.46 138.63 510.68 152.08"/><polygon class="cls-14" points="505.76 215.48 497.57 208.28 507.94 205.88 528.75 205.24 505.76 215.48"/><path class="cls-11" d="M727.51,52.28l-2.68-1.64-41.13,11-27.85,8.69L548.69,129.84s18.38,3.36,33.07,1.84,40.31-3.58,68.78-14.84,67.79-49.9,67.79-49.9Z"/><polygon class="cls-12" points="545.46 152.08 548.36 163.19 567.04 154.47 564.58 146.9 545.46 152.08"/><path class="cls-11" d="M537.22,182.89h-18l-24.09-2.84,1.15-7-22,21.22s11.31,10.8,23.27,14l10.37-2.4,20.81-.64L556.06,200l67-23.93Z"/><polygon class="cls-11" points="475.94 255.65 474.63 260.39 515.1 260.39 532.14 256.03 539.19 251.48 548.53 237.27 543.94 234.05 498.88 243.34 475.94 255.65"/><path class="cls-11" d="M764,99H749.14l-46.76,7.09-3.27,5.59-31.35,4.17-70.57,29.69,12.13,7.25s63.61-3.73,79.95-5.86,42.61-8.27,42.61-8.27L759.73,109Z"/><path class="cls-15" d="M749.35,176.58h4.81l29.49-16.91,5.9-4.63v-4.17l3.5,1.21,17-6.73,6.55-6.72,10.27-36.32,10.92-36.13,1.75-13.64-12.34,18L799.38,112l-26.87,20.09L764,133.63s-19.88,13.9-30.15,30.06v2.78Z"/><polygon class="cls-16" points="754.16 176.58 754.16 182.64 749.35 176.58 754.16 176.58"/><path class="cls-13" d="M751.32,231.15l2.84-12.37,2.62-10.5-2.62-25.64-4.81-6.06L740.62,173h-8.09l-.22,12.8s4.71,20.7,15.3,32.94Z"/><path class="cls-12" d="M810.09,145.35l8.08,14.32L825.55,200,823,210.32h-20.1L798.51,200l-7.22-43.88,1.76-4Z"/><polygon class="cls-11" points="862.96 33.97 891.37 0 889.39 98.01 881.64 155.04 853.13 217.44 840.67 214.55 839.69 204.87 857.06 98.97 862.96 33.97"/><polygon class="cls-11" points="687.31 27.72 705 28.54 770.22 22.73 788.57 14.26 795.94 8.58 739.09 5.55 687.31 27.72"/><polygon class="cls-12" points="827.13 32.33 834.78 32.33 832.81 46.63 816.1 66.18 774.91 90.18 713.11 103.44 711.56 95.48 718.05 86.74 771.69 54.24 776.12 54.05 827.13 32.33"/><polygon class="cls-17" points="620.66 190.66 623.08 185.93 623.08 176.07 580.31 179.47 623.08 174.18 630.12 173.04 673.76 169.76 701.29 174.05 690.8 174.05 620.66 190.66"/><polygon class="cls-16" points="558.48 238.56 552.46 239.74 548.53 237.27 543.69 233.39 504.12 239.74 500.52 239.36 481.18 252.62 498.88 243.34 543.94 234.05 548.09 237.94 549.92 242.58 550.74 250.54 551.48 245.04 556.06 241.82 558.48 238.56"/><polygon class="cls-16" points="426.45 283.69 437.6 257.17 473.45 191.7 496.26 173.04 474.3 194.26 454.31 248.45 464.47 272.7 474.63 272.7 462.5 275.74 426.45 283.69"/><polygon class="cls-16" points="733.84 228.75 744.55 232.35 750.6 228.75 753.01 228.75 768.91 234.24 773.17 234.24 786.71 225.82 797.85 231.15 786.44 226.85 773.33 235.09 768.99 235.09 754.16 231.15 748.18 231.15 743.26 233.39 734.66 230.46 733.68 231.15 733.84 228.75"/><polygon class="cls-11" points="802.88 210.32 797.85 238.22 789.33 254.39 776.66 265.5 759.73 264.53 783.22 234.43 791.29 214.55 791.29 156.12 798.51 200 802.88 210.32"/><polygon class="cls-18" points="789.55 155.04 789.55 150.87 772.51 132.12 789.91 148.79 796.1 150.87 791.29 158.01 791.29 191.33 789.96 157.03 789.55 155.04"/><polygon class="cls-19" points="507.75 239.16 523.78 225.82 556.06 200 623.08 176.07 623.08 185.93 620.66 190.66 602.76 196.35 576.22 214.54 558.48 238.56 552.46 239.74 543.94 234.05 507.75 239.16"/><polygon class="cls-20" points="532.14 256.03 525.42 269.86 533.51 269.55 541.37 256.03 550.74 250.54 594.59 266.64 648.64 264.12 646.02 263.23 597.19 263.61 586.05 261.53 554.7 247.22 556.06 241.82 551.48 245.04 550.66 249.21 549.92 242.58 548.09 237.94 539.19 251.48 532.14 256.03"/><polygon class="cls-21" points="467.75 164.33 475.61 182.64 473.45 191.7 437.6 257.17 426.45 283.69 419.57 284.83 363.21 289.76 368.78 261.59 442.19 173.04 467.75 164.33"/><path class="cls-22" d="M472,114.56l.82-11,92.35-26.72,8.38-6.25,30.51-43L605.55,0l29.65.4-27,27.73s34.57,10.43,48.33,10.43S725.65.23,725.65.23L759.73,0l-9.17,4L739.09,5.55,687.31,27.72,674.69,46.47,656.47,57.28,640.8,50.64l-38-4-14.2,17-15,27.71-28.14,15Z"/><path class="cls-23" d="M601,129.48l-3.85,16,12.62-4.68,58-25,31.35-4.17,3.27-5.59,9.18-16.58L724,65.32l3.47-13-9.18,14.66S669,108.05,647.49,118.09,601,129.48,601,129.48Z"/><polygon class="cls-24" points="618.53 176.58 648.64 164.33 708.94 145.5 725.32 150.87 732.31 149.54 733.68 136.71 759.73 109 756.78 126.05 733.84 156.12 722.04 169.76 725.32 176.07 721.06 190.66 727.94 210.56 701.29 174.05 692.33 173.04 618.53 176.58"/><polygon class="cls-25" points="840.67 214.55 837.07 239.74 829.2 266.24 820.35 266.02 823.47 222.5 822.98 210.32 818.17 159.67 816.64 138.63 837.83 66.18 846.71 91.36 850.2 140.78 839.69 204.87 840.67 214.55"/><polygon class="cls-26" points="816.1 66.18 799.38 112.03 827.24 70.54 832.81 52.28 832.81 46.63 816.1 66.18"/><polygon class="cls-16" points="709.38 104.35 706.31 98.97 706.31 88.66 709.38 74.25 696.05 70.54 655.85 70.35 648.64 74.35 655.85 71.3 695.91 71.67 704.02 76.22 705 78.31 705.42 100.57 702.38 106.06 709.38 104.35"/><polygon class="cls-16" points="829.29 30.76 831.5 25.5 810.52 7.06 806.16 7.06 750.55 4.03 754.86 2.14 754 3.37 807.36 5.55 809.46 2.75 814.68 5.55 818.5 11.99 832.81 25.13 837.39 24.89 829.29 30.76"/><polygon class="cls-16" points="799.38 112.03 817.74 98.97 827.92 98.97 837.39 112.03 842.64 133.89 842.81 132.07 842.03 129.75 837.73 109.95 828.88 95.8 825.55 96.5 817.57 98.01 804.38 107.2 803.2 106.35 799.38 112.03"/><polygon class="cls-14" points="817.57 98.01 820.35 85.63 827.24 70.54 839.58 52.54 837.83 66.18 828.88 95.8 817.57 98.01"/><polygon class="cls-11" points="541.15 43.7 575.01 38.9 600.58 22.73 605.55 -0.04 593.59 8.58 584.08 16.54 551.31 32.07 541.15 43.7"/><polygon class="cls-14" points="808.42 146.01 816.64 138.63 817.57 152.76 818.17 159.67 808.42 146.01"/><path class="cls-11" d="M635.2.36l-27,27.73s32.39,10.43,48.33,10.43S725.65.23,725.65.23Z"/><polygon class="cls-11" points="881.64 155.04 871.15 155.04 848.83 149.15 857.06 98.97 876.5 88.2 889.39 98.01 881.64 155.04"/><polygon class="cls-27" points="770.42 42.63 771.69 54.24 776.12 54.05 778.41 43.7 786.11 33.21 784.12 50.64 827.13 32.33 829.29 30.76 831.5 25.5 810.52 7.06 806.16 7.06 789.9 28.54 770.42 42.63"/><polygon class="cls-28" points="774.91 90.18 772.51 109 772.51 132.12 763.99 133.63 756.78 126.05 759.73 109 763.99 98.97 749.13 98.97 748.7 95.8 774.91 90.18"/><polygon class="cls-29" points="533.94 86.64 545.46 106.35 573.6 91.36 573.56 70.54 565.18 76.79 533.94 86.64"/><polygon class="cls-30" points="582.97 57.28 582.97 74.01 588.56 63.65 587.67 50.64 582.97 57.28"/><polygon class="cls-31" points="482.82 128.33 487.63 140.78 487.63 180.1 496.26 173.04 510.68 152.08 504.45 152.76 482.82 128.33"/><polygon class="cls-32" points="578.74 154.04 573.6 180.1 586.81 178.85 594.41 152.76 578.74 154.04"/><polygon class="cls-33" points="605.38 152.93 600.88 177.84 606.04 177.97 609.32 152.76 605.38 152.93"/><polygon class="cls-34" points="837.39 24.89 864.54 19.38 865.8 24.89 859.03 36.62 839.69 46.63 832.81 46.63 832.81 52.28 828.58 68.59 839.58 52.54 837.83 66.18 846.71 91.36 842.64 133.89 850.2 81.08 859.5 72.07 862.96 33.97 868.64 28.54 891.15 10.6 891.37 0 871.71 0 837.39 24.89"/><polygon class="cls-16" points="449.69 235.09 432.57 233.39 409.93 210.81 343.18 218.78 335.68 233.39 328.8 273.9 326.74 273.9 331.09 276.73 330 273.9 336.45 234.43 342.45 221.48 344.31 220.6 382.99 214.58 386.56 214.06 409.2 212.83 410.4 213.84 413.78 216.12 431.37 234.05 443.93 239.96 444.94 243.77 449.69 235.09"/><polygon class="cls-16" points="747.61 218.78 756.78 208.28 751.32 231.15 747.61 233.39 733.68 264.53 745.23 230.46 747.61 218.78"/><polygon class="cls-16" points="733.84 166.47 726.14 173.04 725.32 176.07 732.53 173.04 740.62 173.04 748.11 176.07 733.84 166.47"/><polygon class="cls-35" points="732.31 149.54 729 161.72 733.84 156.12 756.78 126.05 759.73 109 733.68 136.71 732.31 149.54"/><polygon class="cls-36" points="660.84 111.91 667.75 115.82 699.11 111.65 706.31 98.97 705 78.31 677.96 98.97 660.84 111.91"/><polygon class="cls-37" points="602.76 46.63 608.17 28.09 635.2 0.36 605.55 -0.04 604.07 27.53 592.07 46.63 592.07 59.44 602.76 46.63"/><polygon class="cls-38" points="508.85 43.7 512.05 56.83 517.99 54.15 517.99 38.52 508.85 43.7"/><polygon class="cls-39" points="523.89 34.35 539.18 44.77 551.31 32.07 526.3 22.73 523.89 34.35"/><polygon class="cls-40" points="584.76 207.91 626.85 194.01 642.74 190.66 670.71 191.33 638.89 257.77 641.7 260.39 653.55 233.39 676.82 194.01 676.33 200 666.91 223.19 655.85 264.53 694.68 263.78 731.44 264.53 733.84 228.75 727.94 210.56 701.29 174.05 690.8 174.05 602.76 196.35 584.76 207.91"/><polygon class="cls-41" points="685.34 113.48 629.3 151.16 673.66 149.15 699.11 111.65 685.34 113.48"/><polygon class="cls-42" points="711.56 104.52 694.85 146.9 703.37 145.24 709.38 118.47 714.15 104.28 711.56 104.52"/><polygon class="cls-41" points="620.51 90.18 655.85 113.91 644.95 119.36 629.3 122.87 597.72 102.62 620.51 90.18"/><polygon class="cls-41" points="623.94 88.2 685.34 93.02 689.61 90.18 627.56 85.76 623.94 88.2"/><polygon class="cls-43" points="629.3 151.16 630.12 173.04 644.95 171.27 651.99 182.64 659.3 181.28 656.77 171.27 647.88 171.27 647.44 165.36 646.89 150.36 629.3 151.16"/><polygon class="cls-41" points="756.78 63.91 751.87 94.22 756.78 93.5 758.03 63.03 756.78 63.91"/><polygon class="cls-41" points="763.99 59.23 767.6 91.75 774.91 90.18 779.09 87.74 771.69 54.24 763.99 59.23"/><polygon class="cls-41" points="754.95 64.38 748.7 94.98 744.55 95.74 750.55 67.05 754.95 64.38"/><polygon class="cls-44" points="687.31 27.72 705 28.54 706.31 43.7 754.95 44.77 703.37 46.63 674.69 46.47 687.31 27.72"/><polygon class="cls-41" points="474.46 70.54 557.53 78.31 565.18 76.79 487.98 66.56 483.59 54.9 474.46 70.54"/><polygon class="cls-41" points="488.56 46.38 504.12 46.63 505.31 60.07 575.45 66.6 576.71 85.59 620.51 90.18 627.56 85.76 580.09 79.33 579.05 64.41 506.58 59.26 505.72 45.64 490.84 43.7 488.56 46.38"/><polygon class="cls-42" points="359.38 169 427.58 190.66 418.99 200.2 350.94 173.04 359.38 169"/><polygon class="cls-41" points="346.33 174.75 413.18 207 409.93 210.81 337.81 179.31 346.33 174.75"/><polygon class="cls-43" points="427.58 190.66 451.85 231.14 449.69 235.09 418.99 200.2 427.58 190.66"/><polygon class="cls-45" points="857.79 265.85 853.13 217.44 881.64 155.04 889.39 98.01 893.67 94.22 885.85 154.21 882.3 169.76 896.65 239.74 905.04 247.22 954.69 256.29 959.61 253.9 957.34 220.68 906.37 70.35 961.53 214.16 971.15 177.84 972.5 174.05 954.69 83.96 962.65 46.63 962.65 32.07 993.46 48.94 969.84 19.38 975.9 -0.77 1000 0 1000.17 267.78 857.79 265.85"/><polygon class="cls-46" points="904.79 64.38 890.26 54.9 891.37 0 916.41 0.23 912.87 13.38 908.33 14.95 904.79 64.38"/><polygon class="cls-11" points="954.3 64.38 926.65 22.73 916.41 0.23 975.9 -0.77 969.84 19.38 962.45 30.76 962.65 32.07 962.65 46.63 954.3 64.38"/><polygon class="cls-47" points="954.69 83.96 972.49 123.88 1000.17 174.94 1000.17 267.78 977.43 202.09 972.5 174.05 954.69 83.96"/><polygon class="cls-48" points="961.53 214.16 970.03 267.21 958.61 267.21 959.61 253.9 957.34 220.68 911.59 85.76 961.53 214.16"/><polygon class="cls-11" points="884.42 180.1 911.59 156.12 933.5 150.36 954.69 213.83 920.96 228.27 894.32 228.37 884.42 180.1"/><polygon class="cls-11" points="905.04 247.22 958.87 243 959.61 253.9 954.69 256.29 905.04 247.22"/><polygon class="cls-11" points="916.36 96.4 933.94 48.94 954.69 83.96 958.38 102.62 935.61 123.88 934.85 129.62 960.79 114.85 962.91 125.59 935.2 145.5 916.36 96.4"/><polygon class="cls-41" points="908.36 76.22 925.41 34.54 920.96 10.23 974.61 3.53 1000.17 13.38 1000.17 17.04 973.88 5.29 922.47 11.48 927.04 37.29 909.82 79.33 889.83 76.41 858.04 88.2 858.56 84.75 889.96 69.72 908.36 76.22"/><polygon class="cls-41" points="969.15 159.78 951.24 187.71 944.96 184.41 889.39 204.33 890.2 208.28 945.99 187.77 953.67 193.76 970.68 164.89 969.15 159.78"/><polygon class="cls-14" points="908.33 14.95 904.79 64.38 923.81 115.82 933.94 48.94 912.87 13.38 908.33 14.95"/><polygon class="cls-14" points="840.67 214.55 857.31 208.28 853.13 217.44 840.67 214.55"/><polygon class="cls-41" points="834.85 247.22 855.59 243 856.52 252.62 833.24 252.62 834.85 247.22"/><polygon class="cls-41" points="832.15 256.29 856.81 255.63 857.21 259.84 831.28 259.23 832.15 256.29"/><polygon class="cls-41" points="861.49 50.16 890.26 28.54 905.47 52.54 931.47 44.77 933.94 33.7 962.91 33.97 962.65 38.52 936.37 37.88 933.94 48.94 905.22 55.73 890.26 36.12 861.27 52.54 861.49 50.16"/><polygon class="cls-16" points="956.23 91.75 940.81 104.28 925.54 121.63 922.47 119.61 889.66 125.01 886.66 117.34 889.54 125.86 922.66 120.87 926.89 123.72 938.01 108.43 943.17 102.94 956.69 94.1 956.23 91.75"/><polygon class="cls-49" points="891.37 0 890.26 54.9 903.02 85.76 912.42 88.2 904.79 61.43 908.33 14.95 912.87 13.38 916.41 0.23 891.37 0"/><polygon class="cls-50" points="962.45 30.76 962.65 46.63 980.45 100.03 1000.17 174.94 1000.17 54.05 991.16 47.67 962.45 30.76"/><polygon class="cls-16" points="829.29 30.76 832.81 46.63 834.78 46.63 832.92 45.15 830.77 31.5 832.57 28.38 829.29 30.76"/><polygon class="cls-16" points="908.17 74.66 945.16 67.88 948.24 57.26 961.39 52.54 966.95 59.55 1000 73 1000 70.35 977.94 63.43 966.5 58.2 961.61 51.48 952.72 55.07 948.98 55.73 947.18 55.73 946.73 61.16 944.33 66.04 943.98 66.25 918.8 72.27 907.55 73.05 908.17 74.66"/><polygon class="cls-51" points="339.29 212.45 362.35 250.5 368.78 261.59 363.21 289.76 360.26 284.58 335.57 279.65 331.09 276.73 330 273.9 336.34 233.56 335.68 233.39 319.82 269.39 313.5 264.18 307.83 217.44 339.29 212.45"/><polygon class="cls-52" points="346.22 223.44 346.79 224.2 353.8 219.72 363.84 217.44 344.33 220.16 344.33 220.16 346.22 223.44"/><polygon class="cls-52" points="399.15 213.38 406.54 214.19 409.2 212.83 399.15 213.38"/><polygon class="cls-52" points="438.99 166.08 445.63 172.22 440.77 174.75 438.99 166.08"/><polygon class="cls-53" points="695.91 71.67 700.66 80.06 705 78.31 704.02 76.22 695.91 71.67"/><polygon class="cls-10" points="659.11 71.33 645.91 75.87 655.85 71.3 659.11 71.33"/><polygon class="cls-54" points="783.38 144.07 786.71 154.95 789.96 157.03 789.55 150.87 783.38 144.07"/><polygon class="cls-55" points="923.07 113.81 930.04 111.27 943.44 102.14 940.81 105.45 925.54 121.63 923.07 113.81"/><polygon class="cls-55" points="921.36 114.56 913.09 121.16 922.47 119.61 921.36 114.56"/><polygon class="cls-56" points="709.38 143.46 708.94 145.5 725.32 150.87 732.31 149.54 733.68 136.71 709.38 143.46"/><polygon class="cls-10" points="538.88 152.08 549.9 150.88 545.85 153.56 538.88 152.08"/><polygon class="cls-10" points="817.74 98.97 808.04 109.75 794.31 115.82 817.74 98.97"/><polygon class="cls-10" points="909.82 79.33 924.46 71.67 908.17 74.66 909.82 79.33"/><polygon class="cls-57" points="639.21 36.1 674.69 31.73 674.69 36.1 657.39 48.94 649.89 47.67 639.21 36.1"/><polygon class="cls-58" points="657.39 48.94 656.47 57.28 674.69 46.47 687.31 27.72 694.68 24.56 694.85 20.23 674.69 31.73 674.69 36.1 657.39 48.94"/><polygon class="cls-59" points="602.76 46.63 597.72 37.94 604.07 27.53 604.86 12.87 627.56 8.21 608.17 28.09 602.76 46.63"/><polygon class="cls-60" points="559.34 200 576.22 214.54 602.76 196.35 620.66 190.66 623.08 176.07 559.34 200"/><polygon class="cls-61" points="701.29 174.05 722.04 169.76 725.32 176.07 721.06 190.66 727.94 210.56 701.29 174.05"/><polygon class="cls-16" points="823.47 222.5 800.96 231.15 821.86 224.01 823.47 225.24 830.2 219.29 840.67 205.06 827.17 220.6 823.47 222.5"/><polygon class="cls-62" points="786.44 226.85 783.22 234.43 792.5 241.06 797.85 238.22 799.13 231.15 786.44 226.85"/><polygon class="cls-14" points="811.81 226.98 823.47 225.24 821.86 224.01 811.81 226.98"/><polygon class="cls-14" points="754.16 231.15 751.32 231.15 750.35 233.96 768.99 235.09 754.16 231.15"/><polygon class="cls-63" points="756.8 265.04 781.71 236.36 789.96 216.22 790.33 166.5 789.55 159.67 754.16 176.58 756.78 208.28 738.08 264.19 756.8 265.04"/><polygon class="cls-10" points="943.17 102.94 956.96 95.47 956.69 94.1 943.17 102.94"/><polygon class="cls-10" points="955.67 54.59 957.5 55.16 961.23 53.26 961.39 52.54 955.67 54.59"/><polygon class="cls-10" points="895.07 125.03 901.16 125.86 908.64 122.99 895.07 125.03"/><polygon class="cls-16" points="495.11 180.05 519.2 182.9 537.22 182.9 623.08 176.07 624.75 176.71 631.11 174.05 537.63 181.25 495.11 180.05"/><polygon class="cls-41" points="541.79 182.53 548.69 201.42 556.06 200 564.58 196.96 561.25 181.18 541.79 182.53"/><polygon class="cls-41" points="567.04 180.53 584 190.03 594.41 186.31 572.37 180.1 567.04 180.53"/><polygon class="cls-14" points="578.54 179.61 597.19 185.32 606.05 182.46 582.89 179.37 578.54 179.61"/><polygon class="cls-14" points="547.05 201.53 561.26 198.15 555.37 202.56 553.19 202.3 547.05 201.53"/><polygon class="cls-64" points="742.96 212.36 750.35 215.65 746.93 222.12 742.96 212.36"/><polygon class="cls-53" points="831.41 40.33 829.58 49.17 829.58 50.41 832.81 46.63 831.41 40.33"/><polygon class="cls-65" points="859.03 36.62 858.04 47.75 862.96 32.39 871.71 26.09 864.54 19.38 865.8 24.89 859.03 36.62"/><polygon class="cls-66" points="567.04 154.47 569.48 179.37 538.88 182.04 548.36 163.19 545.85 153.56 549.9 150.88 564.58 146.9 567.04 154.47"/><polygon class="cls-67" points="571.14 100.85 592.07 98.01 565.41 118.53 558.19 126.05 630.76 84.27 633.46 74.65 656.47 57.28 658.69 37.13 713.52 0 644.95 0 608.17 28.09 602.76 46.63 594.41 59.44 582.97 79.33 589.82 78.31 600.88 70.35 615.87 62.32 600.88 74.01 573.6 97.06 574.58 91.36 548.69 104.63 559.34 104.26 571.14 100.85"/><polygon class="cls-67" points="473.55 177.84 432.57 215.48 432.57 218.78 427.54 228.37 396.31 273.9 371.56 289.03 464.47 289.03 582.89 285.59 557.54 282.18 564.58 279.53 526.3 276.73 464.47 269.86 463.16 259.48 470.25 205.24 474.3 194.26 496.26 173.04 510.68 152.08 518.25 149.15 545.46 138.63 530.15 143.26 515.37 145.35 504.45 146.9 491.94 138.63 501.61 149.54 475.61 180.21 473.55 177.84"/><polygon class="cls-67" points="839.58 52.54 829.75 62.32 808.42 87.25 781.3 114.56 779.07 121.63 772.51 128.33 759.73 129.15 756.78 126.05 729 161.72 722.04 169.76 724.17 171.27 733.84 166.47 734.66 165.36 744.36 150.69 763.99 133.63 772.51 132.12 799.38 112.03 803.2 106.35 839.11 56.23 841.33 57.28 848.83 67.88 848.21 75.65 844.49 114.56 852.14 83.61 854.44 80.77 859.5 72.07 862.96 33.97 859.97 40.03 846.41 48.18 839.58 50.64 839.58 52.54"/><polygon class="cls-68" points="271.13 263.77 293.7 253.9 301.93 250.73 323.56 258.67 323.56 260.39 352.72 276.73 353.87 278.77 364.61 282.67 392.21 289.57 363.21 291.01 363.97 288.62 357.31 284.07 335.57 279.65 304.22 262.47 288.98 262.66 293.9 264.75 304.71 270.87 271.13 263.77"/><polygon class="cls-68" points="332.12 182.04 350.94 169.76 451.85 132.07 475.61 126.05 439.73 139.88 426.45 152.08 433.67 152.08 409.74 157.13 364.85 173.04 371.56 171.72 365.5 176.07 333.55 183.46 332.12 182.04"/><polygon class="cls-68" points="654.14 71.3 548.69 129.84 576.33 122.26 597.19 114.56 588.56 120.5 599.05 117.72 635.2 102.21 623.08 103.44 614.78 106.06 666.91 75.53 695.91 71.67 680.59 84.27 670.71 97.06 705 78.31 704.02 76.22 697.06 71.3 654.14 71.3"/><polygon class="cls-68" points="655.85 70.35 693.7 57.28 725.65 48.94 729 50.64 723.03 59.44 718.33 66.94 709.38 74.25 696.05 70.54 706.31 62.32 713.52 56.14 696.65 64.47 685.34 70.35 655.85 70.35"/><polygon class="cls-69" points="501.61 149.54 507.75 149.54 489.38 169.76 469.93 190.66 492.11 169.76 501.06 163.19 492.87 175.19 471.35 196.54 465.13 215.48 458.35 228.37 461.36 210.81 467.42 194.01 459.66 212.07 451.85 225.34 433.83 241.25 450.71 216.21 444.97 218.78 432.57 215.48 432.57 218.78 424.09 233.39 432.57 225.15 442.19 223.06 424.09 253.9 407.94 267.02 413.27 257.93 395.49 280.66 400.73 269.3 396.31 273.9 376.93 285.75 392.21 289.57 528.75 289.76 525.42 289.76 474.3 283.69 557.54 282.18 564.58 279.53 515.75 281.23 413.27 278.19 461.36 270.87 464.47 269.86 463.16 259.48 470.25 205.24 473.64 195.4 496.26 173.04 510.68 152.08 545.46 138.63 528.75 143.46 530.91 143.29 517.15 146.9 503.71 147.65 504.45 146.9 491.94 138.63 501.61 149.54"/><polygon class="cls-68" points="464.47 269.86 413.27 278.19 503.58 280.87 564.58 279.53 464.47 269.86"/><polygon class="cls-68" points="440.87 286.22 528.75 289.76 582.89 285.59 557.54 282.18 475.61 283.67 440.87 286.22"/><polygon class="cls-68" points="432.57 215.48 444.97 218.78 450.71 216.21 472.01 182.04 473.55 177.84 432.57 215.48"/><polygon class="cls-68" points="433.83 241.25 449.69 222.81 467.42 194.01 459.66 212.07 451.85 225.34 433.83 241.25"/><polygon class="cls-70" points="694.68 71.48 666.91 73.86 605.1 109 614.78 106.06 666.91 75.53 694.68 71.48"/><polygon class="cls-71" points="597.19 114.56 600.88 111.91 567.04 122.83 548.69 129.84 576.33 122.26 597.19 114.56"/><polygon class="cls-72" points="677.04 0 670.25 0 639.46 19.38 632.69 25.5 637.93 28.54 631.11 30.76 608.17 28.09 602.76 46.63 613.64 43.7 648.64 45.46 651.26 55.06 632.82 71.3 622.64 85.88 599.05 98.89 565.41 118.53 561.25 122.87 630.76 84.27 633.46 74.65 656.47 57.28 658.69 37.13 713.52 0 706.31 0.41 675.07 16.24 649.89 28.54 645.8 28.54 677.04 0"/><polygon class="cls-73" points="582.97 79.33 592.07 74.01 618.53 52.28 629.3 46.63 615.87 62.32 600.88 70.35 589.82 78.31 582.97 79.33"/><polygon class="cls-74" points="574.58 91.36 569.83 97.06 559.34 104.26 571.14 100.85 573.6 97.06 574.58 91.36"/><polygon class="cls-75" points="577.19 100.03 589.33 97.06 611.61 78.31 626.85 67.88 592.07 98.01 577.19 100.03"/><polygon class="cls-68" points="608.17 28.09 620.95 29.9 632.69 25.5 639.46 19.38 670.25 0 644.95 0 608.17 28.09"/><polygon class="cls-68" points="839.58 50.64 850.2 52.28 859.97 46.63 854.6 52.28 853.13 57.28 857.22 71.3 862.4 40.1 859.97 40.03 839.58 50.64"/><polygon class="cls-68" points="829.75 62.32 834.78 59.55 799.38 106.06 786.71 113.36 781.3 114.56 799.38 95.8 829.75 62.32"/><polygon class="cls-76" points="475.61 126.05 438.03 138.63 415.64 152.08 426.45 152.08 439.73 139.88 475.61 126.05"/><polygon class="cls-77" points="364.85 173.04 354.03 174.75 374.63 166.43 409.74 157.13 364.85 173.04"/><polygon class="cls-78" points="365.5 176.07 337.48 181.09 332.12 182.04 333.55 183.46 365.5 176.07"/><polygon class="cls-79" points="323.56 258.67 314.46 260.48 293.63 257.67 303.02 259.69 305.42 261.59 291.55 261.59 281.61 261.59 288.98 262.66 304.22 262.47 335.57 279.65 357.31 284.07 363.97 288.62 363.21 291.01 392.21 289.57 369.33 287.48 348.68 279.78 353.87 278.77 352.72 276.73 336.91 276.73 308.59 262.35 323.56 260.39 323.56 258.67"/><polygon class="cls-68" points="305.53 271.44 309.63 270.87 323.56 277.25 326.74 280.87 309.63 275.37 305.53 271.44"/><polygon class="cls-80" points="309.63 270.87 307.83 272.01 308.73 273.9 322.14 278.07 323.56 277.25 326.74 280.87 309.63 275.37 305.53 271.44 309.63 270.87"/><polygon class="cls-68" points="805.77 109 788.4 122.87 774.91 131.42 793.81 122.87 780.21 131.42 775.46 135.36 808.42 132.6 806.76 133.89 796.1 138.63 783.29 142.44 789.91 148.79 808.42 146.01 816.64 138.63 825.85 106.06 827.92 98.97 821.1 103.44 813.29 109 795.62 121.63 804.22 112.98 817.57 101.7 819.54 98.97 816.64 98.97 794.31 115.82 805.77 109"/><polygon class="cls-68" points="782.08 142.64 767.41 149.15 742.77 159.67 775.63 151.16 774.23 152.76 767.92 156.12 789.55 150.87 782.08 142.64"/><polygon class="cls-68" points="789.55 155.04 765.77 159.78 755.47 159.78 767.92 156.12 752.52 159.67 742.12 162.34 733.84 166.47 743.6 173.04 763.99 167.26 761.8 167.26 749.35 168.97 750.56 167.55 769.32 161.01 785.15 158.49 789.55 155.04"/><polygon class="cls-68" points="730.61 79.33 796.1 70.54 814.78 66.94 825.55 54.24 819.7 55.66 793.97 59.55 829.38 50.64 832.81 46.63 781.71 57.28 770.42 59.55 781.3 54.24 776.12 54.05 770.42 55.66 730.61 79.33"/><polygon class="cls-68" points="806.99 71.48 761.7 79.33 797.6 76.96 806.99 71.48"/><polygon class="cls-81" points="804.41 66.18 762.9 71.48 790.21 68.96 730.61 79.33 796.1 70.54 814.78 66.94 804.41 66.18"/><polygon class="cls-82" points="829.38 50.64 829.9 50.03 821.52 50.62 780.38 61.43 794.86 59.32 829.38 50.64"/><polygon class="cls-83" points="781.3 54.24 776.12 54.05 761.8 61.59 770.42 59.55 781.3 54.24"/><polygon class="cls-84" points="816.64 138.63 789.55 145.35 805.14 143.86 789.91 148.79 808.42 146.01 816.64 138.63"/><polygon class="cls-85" points="775.46 135.36 792.5 129.84 818.17 123.88 808.42 132.6 775.46 135.36"/><polygon class="cls-86" points="775.63 151.16 785.94 146.9 784.67 145.5 742.77 159.67 775.63 151.16"/><polygon class="cls-87" points="685.34 70.35 690.15 64.79 721.39 52.28 712.19 57.28 685.34 70.35"/><polygon class="cls-88" points="704.02 76.22 670.71 97.06 705 78.31 704.02 76.22"/><polygon class="cls-89" points="707.35 73.68 717.46 65.17 729 50.64 718.33 66.94 709.38 74.25 707.35 73.68"/><polygon class="cls-68" points="541.15 43.7 495.27 64.41 512.89 67.88 556.25 66.18 545.46 64.47 534.76 63.03 573.6 57.28 585.76 53.34 587.67 50.64 570.32 52.28 590.52 46.63 599.81 32.26 569.01 38.52 541.15 47.8 533.94 48.94 542.96 43.7 541.15 43.7"/><polygon class="cls-68" points="575.45 67.88 541.15 70.35 517.99 74.25 568.59 74.25 573.56 70.54 575.45 67.88"/><polygon class="cls-90" points="599.81 32.26 588.56 43.7 578.67 46.63 539.68 57.28 570.32 52.28 590.52 46.63 599.81 32.26"/><polygon class="cls-91" points="585.76 50.64 574.58 54.05 527.39 61.59 534.76 63.03 573.6 57.28 585.76 53.34 587.67 50.64 585.76 50.64"/><polygon class="cls-92" points="556.25 66.18 519.2 66.18 495.27 64.41 512.89 67.88 556.25 66.18"/><polygon class="cls-93" points="573.56 70.54 517.99 74.25 568.59 74.25 573.56 70.54"/><polygon class="cls-68" points="729 264.9 744.36 259.84 769.02 252.62 766.16 255.63 791.29 250.69 821.1 257.79 831.1 259.84 861.95 264.53 891.37 257.79 891.37 267.78 729 264.9"/><polygon class="cls-68" points="855.7 107.23 889.68 83.96 889.39 96.48 878.71 104.28 889.39 98.01 892.13 106.06 917.59 103.44 919.36 108.68 903.34 115.82 920.08 110.78 920.96 112.03 889.27 127.94 885.1 129.62 850.2 145.35 883.87 138.63 881.64 155.04 846.87 171.03 877.53 164.04 876.53 166.21 843.83 179.61 855.7 107.23"/><polygon class="cls-68" points="888.5 200 944.74 184.03 946.52 189.36 905.04 208.28 947.17 191.33 948.79 196.16 898.22 220.6 951.56 204.46 957.34 220.68 911.59 248.42 905.04 247.22 896.65 239.74 888.5 200"/><polygon class="cls-68" points="885.85 187.03 939.64 171.03 926.65 177.84 941.07 173.04 942.14 175.87 886.66 193.88 885.85 187.03"/><polygon class="cls-68" points="904.79 61.43 933.94 48.94 936.37 37.88 964.43 27.72 962.91 33.97 941.15 44.57 962.65 38.52 962.65 46.63 949.95 57.82 947.19 71.3 913.09 87.87 911.59 83.96 926.65 75.41 909.82 79.33 904.79 64.38 904.79 61.43"/><polygon class="cls-67" points="889.39 98.01 885.1 129.62 889.27 127.94 892.13 106.06 889.39 98.01"/><polygon class="cls-67" points="936.37 37.88 949.95 57.82 947.19 71.3 933.94 48.94 936.37 37.88"/><polygon class="cls-94" points="909.82 79.33 909.82 77.97 944.66 67.03 945.55 68.54 926.28 75.62 909.82 79.33"/><polygon class="cls-95" points="913.09 87.87 913.5 86.96 946.54 70.22 947.19 71.3 913.09 87.87"/><polygon class="cls-96" points="889.5 91.75 856.28 115.82 879.55 103.78 889.39 96.48 889.5 91.75"/><polygon class="cls-97" points="888.61 102.85 864.62 120.24 887.48 106.22 886.66 113.81 853.13 132.12 854.01 127.82 859.97 122.77 852.65 125.86 849.9 142.64 882.4 118.47 885.1 117.34 884.42 127.57 850.2 145.35 885.1 129.62 888.61 102.85"/><polygon class="cls-98" points="919.36 108.68 918.59 106.92 890.26 120.36 904.22 115.42 919.36 108.68"/><polygon class="cls-99" points="920.96 112.03 920.42 111.27 889.27 127.94 920.96 112.03"/><polygon class="cls-100" points="881.64 155.04 883.87 138.63 881.64 146.83 848.83 156.84 879.37 148.79 879.65 151.73 869.25 156.84 877 154.38 845.83 167.07 845.2 171.27 846.87 171.03 881.64 155.04"/><polygon class="cls-101" points="876.53 166.21 844.13 177.84 843.83 179.61 876.53 166.21"/><polygon class="cls-102" points="942.14 175.87 886.66 193.88 885.85 191.33 942.14 175.87"/><polygon class="cls-103" points="946.35 187.82 905.04 208.28 946.52 189.36 946.35 187.82"/><polygon class="cls-104" points="948.75 195.27 893.42 221.67 898.22 220.6 948.79 196.16 948.75 195.27"/><polygon class="cls-105" points="951.85 205.27 954.37 212.86 899.48 239.61 942.14 220.79 949.63 219.91 912.87 243.78 905.04 247.22 911.59 248.42 957.34 220.68 951.85 205.27"/><polygon class="cls-68" points="865.53 83.96 874.92 78.31 888.61 75.41 881.95 79.33 865.53 83.96"/><polygon class="cls-68" points="845.2 184.88 872.55 174.94 866.92 179.91 843.83 187.82 845.2 184.88"/><polygon class="cls-68" points="899.48 177.84 903.34 176.07 907.55 175.87 899.48 177.84"/><polygon class="cls-68" points="908.64 145.5 919.56 135.36 922.92 135.36 927.68 138.63 908.64 145.5"/><polygon class="cls-68" points="907.55 142.64 899.48 142.64 898.22 145.35 903.52 145.35 907.55 142.64"/><polygon class="cls-68" points="769.02 32.39 760.96 32.39 759.69 35.1 764.99 35.1 769.02 32.39"/><polygon class="cls-68" points="945.55 17.04 957.34 9.72 959.61 9.72 964.43 10.85 961.5 13.38 945.55 17.04"/><polygon class="cls-68" points="944.58 18.43 947.19 18.43 949.95 18.43 944.58 20.45 944.58 18.43"/><polygon class="cls-68" points="675.02 142.64 678.01 141.08 692.71 140.07 695.74 141.36 685.38 143.71 675.02 142.64"/><polygon class="cls-68" points="672.24 143.71 669.21 142.64 662.35 145.35 670.71 145.5 672.24 143.71"/><polygon class="cls-68" points="726.84 113.31 735.36 108.99 740.07 109.52 746.06 112.04 742.85 114.82 735.2 114.82 725.8 114.82 726.84 113.31"/><polygon class="cls-68" points="720.62 117.34 718.98 115.82 714.15 117.34 713.52 118.47 720.62 117.34"/><polygon class="cls-68" points="745.17 40.35 743.53 38.83 738.7 40.35 738.08 41.48 745.17 40.35"/><polygon class="cls-106" points="293.7 253.9 277.28 263.77 271.13 263.77 293.7 253.9"/><polygon class="cls-107" points="603.52 -0.26 584.08 16.54 551.31 32.07 586.85 17.04 608.17 0.23 603.52 -0.26"/><polygon class="cls-107" points="526.3 22.73 508.41 25.88 504.22 27.49 488.56 46.38 483.59 54.9 489.9 46.63 507.47 28.75 512.89 26.76 526.3 22.73"/><path class="cls-107" d="M474.46,70.54l-11.3,13.73L452.1,94.52l-.25-.39.77-1.74S465.4,77.48,474.46,70.54Z"/><polygon class="cls-107" points="456.77 110.33 456.77 116.78 446.99 128.33 418.99 144.49 446.77 125.3 456.77 110.33"/><polygon class="cls-106" points="332.12 182.04 354.03 170.41 451.85 132.07 425.29 140.85 350.94 169.76 332.12 182.04"/><polygon class="cls-107" points="332.12 182.04 310.66 217.44 293.7 253.9 305.53 217.44 332.12 182.04"/><polygon class="cls-107" points="271.13 263.77 256.27 268.66 252.77 267.78 256.6 264.75 271.13 263.77"/><polygon class="cls-108" points="891.37 267.78 729 264.9 754.16 262.51 769.02 252.62 766.16 255.63 761.11 262.76 808.42 261.2 791.29 250.69 861.95 264.53 867.9 266.24 888.5 263.95 891.37 257.79 891.37 267.78"/></g></g></g></svg>