<svg xmlns="http://www.w3.org/2000/svg" xmlns:xlink="http://www.w3.org/1999/xlink" viewBox="0 0 1000 400"><defs><style>.cls-1{fill:none;}.cls-2{isolation:isolate;}.cls-3{clip-path:url(#clip-path);}.cls-4{fill:#aabdf9;}.cls-4,.cls-5,.cls-6,.cls-7{fill-rule:evenodd;}.cls-5{fill:#4f63cc;}.cls-6{fill:#7997f6;}.cls-7{fill:#fff;}.cls-8,.cls-9{opacity:0.5;}.cls-10,.cls-11,.cls-8,.cls-9{mix-blend-mode:screen;}.cls-8{fill:url(#Áåçûìÿííûé_ãðàäèåíò_75);}.cls-9{fill:url(#Áåçûìÿííûé_ãðàäèåíò_75-2);}.cls-10{opacity:0.3;fill:url(#Áåçûìÿííûé_ãðàäèåíò_75-3);}.cls-11{opacity:0.2;fill:url(#Áåçûìÿííûé_ãðàäèåíò_80);}</style><clipPath id="clip-path"><rect class="cls-1" width="1000" height="400"/></clipPath><radialGradient id="Áåçûìÿííûé_ãðàäèåíò_75" cx="440.96" cy="90.16" r="8.46" gradientTransform="matrix(2.31, 0, 0, 1.52, -794.14, 68.49)" gradientUnits="userSpaceOnUse"><stop offset="0" stop-color="#a9d1ff"/><stop offset="0.37" stop-color="#a8cffd"/><stop offset="0.5" stop-color="#a3caf6"/><stop offset="0.6" stop-color="#9bc0eb"/><stop offset="0.68" stop-color="#90b2da"/><stop offset="0.74" stop-color="#82a0c4"/><stop offset="0.8" stop-color="#708aa8"/><stop offset="0.85" stop-color="#5a6f88"/><stop offset="0.9" stop-color="#415062"/><stop offset="0.95" stop-color="#242d37"/><stop offset="0.99" stop-color="#060809"/><stop offset="0.99"/></radialGradient><radialGradient id="Áåçûìÿííûé_ãðàäèåíò_75-2" cx="760.67" cy="68.97" r="8.46" gradientTransform="matrix(2.09, 0, 0, 1.2, -1082.66, 136.2)" xlink:href="#Áåçûìÿííûé_ãðàäèåíò_75"/><radialGradient id="Áåçûìÿííûé_ãðàäèåíò_75-3" cx="856.45" cy="247.89" r="4.76" gradientTransform="matrix(2.43, -0.91, 0.43, 1.15, -1560.55, 853.67)" xlink:href="#Áåçûìÿííûé_ãðàäèåíò_75"/><radialGradient id="Áåçûìÿííûé_ãðàäèåíò_80" cx="715.62" cy="103.11" r="19.97" gradientTransform="matrix(1.65, 0, 0, 1, -581.83, 90.92)" gradientUnits="userSpaceOnUse"><stop offset="0" stop-color="#97ccff"/><stop offset="0.37" stop-color="#96cbfd"/><stop offset="0.5" stop-color="#92c5f6"/><stop offset="0.6" stop-color="#8bbceb"/><stop offset="0.68" stop-color="#81aeda"/><stop offset="0.74" stop-color="#749cc4"/><stop offset="0.8" stop-color="#6487a8"/><stop offset="0.85" stop-color="#516d88"/><stop offset="0.9" stop-color="#3a4f62"/><stop offset="0.95" stop-color="#212c37"/><stop offset="0.99" stop-color="#050709"/><stop offset="0.99"/></radialGradient></defs><title>Artboard 6</title><g class="cls-2"><g id="snow_01"><g class="cls-3"><path class="cls-4" d="M484.55,168.18c-1.29-1.29,4-5.64,5.44-4.23S486,169.64,484.55,168.18Z"/><path class="cls-4" d="M512.74,262.84c-1.29-1.29,4-5.64,5.44-4.23S514.21,264.31,512.74,262.84Z"/><path class="cls-4" d="M459.42,232.81c-2.93-1.83,4-5.64,5.44-4.24S463.85,235.57,459.42,232.81Z"/><path class="cls-4" d="M617.66,111.18c-1.25-.78,1.73-2.41,2.33-1.81S619.56,112.37,617.66,111.18Z"/><path class="cls-5" d="M613,222.62c-1.25-.78,1.73-2.41,2.33-1.81S614.89,223.81,613,222.62Z"/><path class="cls-5" d="M525.81,215.45c-.62-.39.85-1.2,1.15-.9S526.74,216,525.81,215.45Z"/><path class="cls-4" d="M678.32,78.26c-1.26-.79,1.73-2.42,2.33-1.82S680.22,79.44,678.32,78.26Z"/><path class="cls-4" d="M499.74,161.45c0-.91,2.21-2.2,3.66-2.2s2.27,2.63,1.63,3.27S499.74,163.07,499.74,161.45Z"/><path class="cls-4" d="M573,196.71c0-.92,2.21-2.21,3.66-2.21s2.27,2.63,1.63,3.28S573,198.32,573,196.71Z"/><path class="cls-4" d="M504.91,149.79c-.37-.17-.5-1.29-.24-1.88s1.48-.44,1.62-.07S505.56,150.08,504.91,149.79Z"/><path class="cls-4" d="M543.61,257.41c-.37-.17-.5-1.29-.23-1.88s1.47-.44,1.62-.07S544.26,257.7,543.61,257.41Z"/><path class="cls-5" d="M634,215c-.37-.17-.49-1.3-.23-1.88s1.47-.45,1.62-.07S634.6,215.31,634,215Z"/><path class="cls-4" d="M526.72,136.53c-.37-.16-.49-1.29-.23-1.88s1.47-.44,1.62-.06S527.37,136.82,526.72,136.53Z"/><path class="cls-6" d="M515.44,146.22c.76-1.16,2.88-.77,2.88,0s-2.5,1.53-2.88,1.14S515.06,146.79,515.44,146.22Z"/><path class="cls-6" d="M412.65,151c.76-1.16,2.88-.76,2.88,0s-2.5,1.53-2.88,1.14S412.27,151.55,412.65,151Z"/><path class="cls-7" d="M329.57,36.3c-1.29-1.29,4-5.63,5.44-4.23S331,37.77,329.57,36.3Z"/><path class="cls-7" d="M835.24,209.3c-1.3-1.29,4-5.64,5.43-4.24S836.7,210.76,835.24,209.3Z"/><path class="cls-7" d="M319.19,33.1c0-.91,2.21-2.21,3.66-2.21s2.27,2.64,1.62,3.28S319.19,34.72,319.19,33.1Z"/><path class="cls-7" d="M420.58,95.27c0-.91,2.21-2.21,3.66-2.21s2.27,2.64,1.63,3.28S420.58,96.88,420.58,95.27Z"/><path class="cls-7" d="M389.12,44.65c-.37-.16-.49-1.29-.23-1.88s1.48-.44,1.62-.06S389.78,44.94,389.12,44.65Z"/><path class="cls-7" d="M982.38,253.81c-.37-.17-.49-1.3-.23-1.88s1.47-.45,1.62-.07S983,254.1,982.38,253.81Z"/><path class="cls-7" d="M968.64,146.47c-.37-.16-.5-1.29-.24-1.88s1.48-.44,1.62-.06S969.29,146.77,968.64,146.47Z"/><path class="cls-7" d="M263.93,161.32c-.37-.16-.5-1.29-.23-1.88s1.47-.44,1.62-.06S264.58,161.61,263.93,161.32Z"/><path class="cls-7" d="M359.47,130.35c.76-1.16,2.88-.76,2.88,0s-2.5,1.53-2.88,1.14S359.09,130.92,359.47,130.35Z"/><path class="cls-7" d="M260.19,49.54c.77-1.16,2.88-.76,2.88,0s-2.49,1.53-2.88,1.14S259.82,50.11,260.19,49.54Z"/><path class="cls-7" d="M980,125.79c.76-1.16,2.88-.76,2.88,0s-2.5,1.53-2.88,1.15S979.64,126.36,980,125.79Z"/><path class="cls-7" d="M19.05,302.94c-1.3-1.29,4-5.63,5.43-4.23S20.51,304.41,19.05,302.94Z"/><path class="cls-7" d="M51.36,227.55c0-.91,2.21-2.2,3.66-2.2s2.27,2.63,1.63,3.27S51.36,229.17,51.36,227.55Z"/><path class="cls-7" d="M140.63,259c-.37-.17-.49-1.3-.23-1.88s1.48-.44,1.62-.07S141.29,259.24,140.63,259Z"/><path class="cls-7" d="M20.48,281.84c.77-1.16,2.88-.76,2.88,0s-2.49,1.53-2.88,1.15S20.11,282.41,20.48,281.84Z"/><ellipse class="cls-8" cx="224.59" cy="205.24" rx="19.53" ry="12.83" transform="translate(-68.67 124.21) rotate(-26.98)"/><ellipse class="cls-9" cx="509.61" cy="218.78" rx="17.7" ry="10.13" transform="translate(-44.97 216.68) rotate(-23.02)"/><path class="cls-10" d="M637.7,355.57c1.13,3-3.13,7.4-9.51,9.79s-12.47,1.88-13.6-1.14,3.13-7.41,9.51-9.79S636.57,352.55,637.7,355.57Z"/><ellipse class="cls-11" cx="599.04" cy="194.01" rx="32.95" ry="19.97" transform="translate(-30.62 189.31) rotate(-17.52)"/></g></g></g></svg>