<svg xmlns="http://www.w3.org/2000/svg" xmlns:xlink="http://www.w3.org/1999/xlink" viewBox="0 0 1000 400"><defs><style>.cls-1{fill:none;}.cls-2{isolation:isolate;}.cls-3{clip-path:url(#clip-path);}.cls-12,.cls-13,.cls-14,.cls-4,.cls-5{fill-rule:evenodd;}.cls-4{fill:url(#Áåçûìÿííûé_ãðàäèåíò_4);}.cls-5{fill:#cad6fb;}.cls-10,.cls-11,.cls-6,.cls-7,.cls-8,.cls-9{opacity:0.5;mix-blend-mode:multiply;}.cls-6{fill:url(#Áåçûìÿííûé_ãðàäèåíò_150);}.cls-7{fill:url(#Áåçûìÿííûé_ãðàäèåíò_150-2);}.cls-8{fill:url(#Áåçûìÿííûé_ãðàäèåíò_150-3);}.cls-9{fill:url(#Áåçûìÿííûé_ãðàäèåíò_150-4);}.cls-10{fill:url(#Áåçûìÿííûé_ãðàäèåíò_150-5);}.cls-11{fill:url(#Áåçûìÿííûé_ãðàäèåíò_150-6);}.cls-12{fill:#aabdf9;}.cls-13{mix-blend-mode:screen;fill:url(#Áåçûìÿííûé_ãðàäèåíò_64);}.cls-14{fill:#d7e0fc;}</style><clipPath id="clip-path"><rect class="cls-1" width="1000" height="400"/></clipPath><linearGradient id="Áåçûìÿííûé_ãðàäèåíò_4" x1="598.18" y1="406.86" x2="598.18" y2="-5.13" gradientUnits="userSpaceOnUse"><stop offset="0" stop-color="#b6b3bd"/><stop offset="1" stop-color="#80759b"/></linearGradient><linearGradient id="Áåçûìÿííûé_ãðàäèåíò_150" x1="300.11" y1="236.74" x2="402.75" y2="236.74" gradientUnits="userSpaceOnUse"><stop offset="0" stop-color="#9d7c90"/><stop offset="1" stop-color="#775477"/></linearGradient><linearGradient id="Áåçûìÿííûé_ãðàäèåíò_150-2" x1="551.75" y1="197.2" x2="1006.58" y2="197.2" xlink:href="#Áåçûìÿííûé_ãðàäèåíò_150"/><linearGradient id="Áåçûìÿííûé_ãðàäèåíò_150-3" x1="317.08" y1="159.3" x2="348.81" y2="159.3" xlink:href="#Áåçûìÿííûé_ãðàäèåíò_150"/><linearGradient id="Áåçûìÿííûé_ãðàäèåíò_150-4" x1="438.85" y1="55.44" x2="502.49" y2="55.44" xlink:href="#Áåçûìÿííûé_ãðàäèåíò_150"/><linearGradient id="Áåçûìÿííûé_ãðàäèåíò_150-5" x1="494.58" y1="63.49" x2="554.15" y2="63.49" xlink:href="#Áåçûìÿííûé_ãðàäèåíò_150"/><linearGradient id="Áåçûìÿííûé_ãðàäèåíò_150-6" x1="339.65" y1="278.84" x2="420.58" y2="278.84" xlink:href="#Áåçûìÿííûé_ãðàäèåíò_150"/><linearGradient id="Áåçûìÿííûé_ãðàäèåíò_64" x1="598.25" y1="406.87" x2="598.25" y2="-4.47" gradientUnits="userSpaceOnUse"><stop offset="0" stop-color="#858dbc"/><stop offset="1"/></linearGradient></defs><title>Artboard 6</title><g class="cls-2"><g id="rock_01"><g class="cls-3"><path class="cls-4" d="M266.89,84.12l13.39,3.28,8.09-1.64s32.15-19.77,46-23.18h5.87L345,99l5.87,1.89,4.36,5.12,38-24.89L448.06-.77l554.52-4.36,3.6,408-816,4Z"/><polygon class="cls-5" points="296.44 80.96 317.97 87.59 318.81 103.06 323.18 106.13 309.04 102.74 305.12 101.8 286.23 102.7 297.62 115.62 305.12 116.19 298.92 107.48 307.44 116.19 316.94 117.09 308.7 104.83 309.59 105.08 312.43 109.13 310.6 103.82 325.55 116.23 345.53 112.98 343.06 110.89 326.14 106.47 328.16 103.06 343.06 99.53 336.27 70.22 325.35 65.82 323.23 66.94 334.05 70.22 333.21 70.54 320.07 68.24 309.24 73.57 329.8 76.03 307.99 74.46 296.44 80.96"/><path class="cls-6" d="M380.58,109l-25.77-.33.38-2.7-4.36-5.12L345,103.06h-16.8l14.9-3.53L345,99l-4.74-36.38-4,7.64L312.75,92.55l-12.51,4.39L282,94.22l6.34-8.46-8.09,1.64L273,90.81h-7.66l13.29,12.25,26.48-1.26,37.94,9.09,2.47,2.09-26.34,4.28-35.5-2.7,4.23,11.49,44.2,56-81-33.94-9.28,44.13,21.55,213.62h13.34l-1.23,5,2-5h.79l1.06-4.59,80.85-244.13,31.5-34.26,11-24.86Zm-9,34.36-22.75,9.4-46.34-16.2-6.4-7.95,52.74,5.65,22.75,4.81Z"/><polygon class="cls-7" points="293.73 400.55 420.58 157.13 426.09 111.65 402.75 98.01 393.21 81.08 448.06 -0.77 400.28 78.31 406.73 86.64 453.06 56.83 496.75 -0.04 502.49 -0.77 453.06 67.88 438.99 96.44 438.99 106.06 463.16 100.03 506.31 46.63 496.26 27.42 554.15 14.95 513.16 44.77 463.16 109.24 432.57 145.35 399.15 228.37 399.15 257.83 488.93 239.96 606.94 0 1006.58 -8.46 1006.18 402.86 293.73 400.55"/><polygon class="cls-8" points="348.81 152.76 332.12 182.04 299.09 141.89 302.47 136.56 348.81 152.76"/><polygon class="cls-9" points="406.73 86.64 402.75 98.01 426.09 111.65 438.99 96.44 453.06 67.88 502.49 -0.77 496.75 -0.04 453.06 56.83 406.73 86.64"/><polygon class="cls-10" points="463.16 100.03 460.79 112.03 513.16 44.77 554.15 14.95 496.26 27.42 506.31 46.63 463.16 100.03"/><polygon class="cls-11" points="420.58 157.13 418.72 179.77 399.15 228.37 329.07 399.03 293.73 400.55 420.58 157.13"/><polygon class="cls-5" points="251.16 148.1 316.67 175.56 279.53 159.05 275.06 152.23 330.25 179.77 322.31 169 305.17 158.39 315.88 162.3 287.92 126.05 259.88 112.03 251.16 148.1"/><polygon class="cls-5" points="261.71 106.52 285.01 117.26 283.69 114.56 263.56 98.55 261.71 106.52"/><polygon class="cls-5" points="302.47 136.56 348.81 152.76 322.31 141.72 319.19 138.63 357.3 149.25 371.56 143.36 352.54 140.85 371.26 141.72 371.56 139.07 296.07 128.61 302.47 136.56"/><polygon class="cls-12" points="395.65 77.45 448.06 -0.77 409.74 66.6 420.58 57.28 415.64 65.82 474.46 -0.04 468.12 16.45 472.01 19.38 452.62 51.63 480.79 20.74 453.06 56.83 406.73 86.64 395.65 77.45"/><path class="cls-13" d="M267,84.12l13.38,3.29,8.09-1.65s32.15-19.77,46-23.18h5.87L345,99l5.87,1.9,4.36,5.11,38-24.88L448.13-.76l555.12-3.71,3,407.34-816,4Z"/><polygon class="cls-14" points="449.69 -3.17 395.65 77.45 393.28 81.09 355.26 105.97 350.9 100.86 345.03 98.96 340.29 62.58 334.42 60.12 309.24 73.57 288.44 85.76 280.35 87.41 266.96 84.12 265.76 85.41 278.93 88.25 287.64 86.64 310.22 73.88 334.35 63.4 339.46 63.34 344.26 99.15 350.07 101.11 354.92 107.9 395.01 84.27 396.68 78.31 449.69 -3.17"/></g></g></g></svg>