<svg xmlns="http://www.w3.org/2000/svg" xmlns:xlink="http://www.w3.org/1999/xlink" viewBox="0 0 1000 400"><defs><style>.cls-1{fill:none;}.cls-2{isolation:isolate;}.cls-3{clip-path:url(#clip-path);}.cls-10,.cls-14,.cls-18,.cls-20,.cls-21,.cls-22,.cls-23,.cls-24,.cls-25,.cls-26,.cls-27,.cls-4,.cls-6,.cls-7,.cls-8,.cls-9{fill-rule:evenodd;}.cls-4{fill:url(#Áåçûìÿííûé_ãðàäèåíò_16);}.cls-14,.cls-15,.cls-17,.cls-19,.cls-23,.cls-24,.cls-5{opacity:0.5;}.cls-10,.cls-11,.cls-12,.cls-13,.cls-14,.cls-15,.cls-17,.cls-19,.cls-22,.cls-23,.cls-25,.cls-26,.cls-27,.cls-5,.cls-9{mix-blend-mode:multiply;}.cls-5{fill:url(#Áåçûìÿííûé_ãðàäèåíò_150);}.cls-6{fill:#a7969a;}.cls-16,.cls-7,.cls-8{fill:#957d80;}.cls-16,.cls-7{mix-blend-mode:soft-light;}.cls-9{opacity:0.2;fill:url(#Áåçûìÿííûé_ãðàäèåíò_150-2);}.cls-10,.cls-11,.cls-12,.cls-13,.cls-22,.cls-25,.cls-26,.cls-27{opacity:0.3;}.cls-10{fill:url(#Áåçûìÿííûé_ãðàäèåíò_150-3);}.cls-11{fill:url(#Áåçûìÿííûé_ãðàäèåíò_150-4);}.cls-12{fill:url(#Áåçûìÿííûé_ãðàäèåíò_150-5);}.cls-13{fill:url(#Áåçûìÿííûé_ãðàäèåíò_150-6);}.cls-14{fill:url(#Áåçûìÿííûé_ãðàäèåíò_150-7);}.cls-15{fill:url(#Áåçûìÿííûé_ãðàäèåíò_150-8);}.cls-17{fill:url(#Áåçûìÿííûé_ãðàäèåíò_150-9);}.cls-18{fill:url(#Áåçûìÿííûé_ãðàäèåíò_2);}.cls-19{fill:url(#Áåçûìÿííûé_ãðàäèåíò_150-10);}.cls-20{fill:#aabdf9;}.cls-21{fill:#cad6fb;}.cls-22{fill:url(#Áåçûìÿííûé_ãðàäèåíò_150-11);}.cls-23{fill:url(#Áåçûìÿííûé_ãðàäèåíò_150-12);}.cls-24{mix-blend-mode:screen;fill:url(#Áåçûìÿííûé_ãðàäèåíò_64);}.cls-25{fill:url(#Áåçûìÿííûé_ãðàäèåíò_150-13);}.cls-26{fill:url(#Áåçûìÿííûé_ãðàäèåíò_150-14);}.cls-27{fill:url(#Áåçûìÿííûé_ãðàäèåíò_150-15);}</style><clipPath id="clip-path"><rect class="cls-1" width="1000" height="400"/></clipPath><linearGradient id="Áåçûìÿííûé_ãðàäèåíò_16" x1="152.25" y1="405.53" x2="152.25" gradientUnits="userSpaceOnUse"><stop offset="0" stop-color="#898393"/><stop offset="1" stop-color="#695c69"/></linearGradient><linearGradient id="Áåçûìÿííûé_ãðàäèåíò_150" x1="91.68" y1="174.56" x2="253.3" y2="174.56" gradientUnits="userSpaceOnUse"><stop offset="0" stop-color="#9d7c90"/><stop offset="1" stop-color="#775477"/></linearGradient><linearGradient id="Áåçûìÿííûé_ãðàäèåíò_150-2" x1="228.24" y1="155.18" x2="303.75" y2="155.18" xlink:href="#Áåçûìÿííûé_ãðàäèåíò_150"/><linearGradient id="Áåçûìÿííûé_ãðàäèåíò_150-3" x1="50.44" y1="185.66" x2="163.76" y2="185.66" xlink:href="#Áåçûìÿííûé_ãðàäèåíò_150"/><linearGradient id="Áåçûìÿííûé_ãðàäèåíò_150-4" x1="81.52" y1="205.13" x2="225.21" y2="205.13" xlink:href="#Áåçûìÿííûé_ãðàäèåíò_150"/><linearGradient id="Áåçûìÿííûé_ãðàäèåíò_150-5" x1="98.3" y1="97.27" x2="176.2" y2="97.27" xlink:href="#Áåçûìÿííûé_ãðàäèåíò_150"/><linearGradient id="Áåçûìÿííûé_ãðàäèåíò_150-6" x1="187.1" y1="207.01" x2="228.24" y2="207.01" xlink:href="#Áåçûìÿííûé_ãðàäèåíò_150"/><linearGradient id="Áåçûìÿííûé_ãðàäèåíò_150-7" x1="200.17" y1="292.79" x2="290.97" y2="292.79" xlink:href="#Áåçûìÿííûé_ãðàäèåíò_150"/><linearGradient id="Áåçûìÿííûé_ãðàäèåíò_150-8" x1="0" y1="274.01" x2="85.51" y2="274.01" xlink:href="#Áåçûìÿííûé_ãðàäèåíò_150"/><linearGradient id="Áåçûìÿííûé_ãðàäèåíò_150-9" x1="36.3" y1="135.29" x2="91.39" y2="135.29" xlink:href="#Áåçûìÿííûé_ãðàäèåíò_150"/><linearGradient id="Áåçûìÿííûé_ãðàäèåíò_2" x1="84.11" y1="225.82" x2="84.11" y2="100.57" gradientUnits="userSpaceOnUse"><stop offset="0" stop-color="#695c69"/><stop offset="1" stop-color="#6f687c"/></linearGradient><linearGradient id="Áåçûìÿííûé_ãðàäèåíò_150-10" x1="57.2" y1="153.18" x2="163.17" y2="153.18" xlink:href="#Áåçûìÿííûé_ãðàäèåíò_150"/><linearGradient id="Áåçûìÿííûé_ãðàäèåíò_150-11" x1="76.73" y1="247.6" x2="212.38" y2="247.6" xlink:href="#Áåçûìÿííûé_ãðàäèåíò_150"/><linearGradient id="Áåçûìÿííûé_ãðàäèåíò_150-12" x1="136.03" y1="140.85" x2="243.4" y2="140.85" xlink:href="#Áåçûìÿííûé_ãðàäèåíò_150"/><linearGradient id="Áåçûìÿííûé_ãðàäèåíò_64" x1="152.36" y1="404.2" x2="152.36" y2="62.14" gradientUnits="userSpaceOnUse"><stop offset="0" stop-color="#858dbc"/><stop offset="1"/></linearGradient><linearGradient id="Áåçûìÿííûé_ãðàäèåíò_150-13" x1="101.4" y1="312.28" x2="130.76" y2="312.28" xlink:href="#Áåçûìÿííûé_ãðàäèåíò_150"/><linearGradient id="Áåçûìÿííûé_ãðàäèåíò_150-14" x1="142.9" y1="267.87" x2="228.24" y2="267.87" xlink:href="#Áåçûìÿííûé_ãðàäèåíò_150"/><linearGradient id="Áåçûìÿííûé_ãðàäèåíò_150-15" x1="185.57" y1="264.02" x2="243.4" y2="264.02" xlink:href="#Áåçûìÿííûé_ãðàäèåíò_150"/></defs><title>Artboard 6</title><g class="cls-2"><g id="rock_02"><g class="cls-3"><path class="cls-4" d="M303.75,162.88l-13.61-34.3s-19.46-43-21.22-46.74-21-19.07-21.6-19.7-19.08,0-19.08,0l-6.82-3.29L188.83,0H0L-3.42,405.53l311.34-2Z"/><polygon class="cls-5" points="158 0 176.2 50.77 184.28 60.37 193.63 60.37 221.42 58.85 228.24 62.14 201.87 78.31 218.39 76.03 222.18 76.54 224.96 82.6 225.21 114.56 205 174.75 210.31 179.77 228.24 176.07 253.3 182.04 200.17 320.07 0 349.88 100 241.25 139.57 190.66 163.76 86.64 163.76 76.22 115.82 146.9 54.12 195.31 68.89 161.72 74.76 126.05 5.05 225.82 33.46 213.51 0 315.61 0 40.16 55.08 55.66 60.71 42.38 38.01 -0.77 158.26 0.75 158 0"/><polygon class="cls-6" points="222.18 76.54 235.44 70.54 247.32 62.14 228.24 62.14 201.87 78.31 218.39 76.03 222.18 76.54"/><polygon class="cls-7" points="225.21 114.56 235.63 90.81 235.44 70.54 222.18 76.54 224.96 82.6 225.21 114.56"/><path class="cls-8" d="M291,130.67l-18.37-2.34-6.21-5.56-30.76-32-.19-20.27,11.88-8.4s18.88,13.77,21.6,19.7Z"/><polygon class="cls-9" points="272.6 128.33 261.59 152.76 228.24 176.07 253.3 182.04 303.75 162.88 290.97 130.67 272.6 128.33"/><polygon class="cls-10" points="115.82 146.9 85.5 198.15 50.44 295.09 139.57 190.66 163.76 86.64 163.76 76.22 115.82 146.9"/><polygon class="cls-11" points="224.96 82.6 222.18 76.54 218.39 76.03 201.87 78.31 188.83 67.88 184.28 60.37 163.76 86.64 139.57 190.66 163.17 148.1 134.78 194.5 0 349.88 100 304.16 131.88 295.81 144.62 258.67 205 174.75 225.21 114.56 224.96 82.6"/><polygon class="cls-12" points="176.2 50.77 163.76 76.22 115.82 146.9 54.12 195.31 68.89 161.72 100 0 119.36 -0.77 161.55 46.63 170.72 48.75 170.72 43.44 158.26 0.75 176.2 50.77"/><polygon class="cls-13" points="228.24 176.07 205 194.01 163.76 237.94 205 187.44 210.31 179.77 228.24 176.07"/><polygon class="cls-14" points="221.18 265.5 212.38 295.54 290.97 272.7 247.32 306.2 200.17 320.07 221.18 265.5"/><polygon class="cls-15" points="33.46 213.51 47.68 205.24 85.5 198.15 50.44 295.09 0 349.88 0 257.67 33.46 213.51"/><polygon class="cls-16" points="5.05 225.82 33.46 213.51 54.12 195.31 68.89 161.72 74.76 126.05 5.05 225.82"/><polygon class="cls-6" points="228.24 176.07 249.03 161.35 284.33 165.94 303.75 162.88 253.3 182.04 228.24 176.07"/><polygon class="cls-6" points="91.39 44.77 110.01 84.27 152.5 122.87 163.17 148.1 74.76 100.57 91.39 44.77"/><polygon class="cls-17" points="74.76 100.57 50.44 157.13 5.05 225.82 42.75 134.26 91.39 44.77 74.76 100.57"/><polygon class="cls-18" points="74.76 100.57 5.05 225.82 33.46 213.51 54.12 195.31 115.82 146.9 148.54 152.08 163.17 148.1 74.76 100.57"/><polygon class="cls-19" points="74.76 100.57 91.39 44.77 0 117.26 -2.92 261.59 33.46 213.51 47.68 205.24 85.5 198.15 110.56 169.76 146.87 159.25 163.17 148.1 74.76 100.57"/><polygon class="cls-6" points="50.44 295.09 85.5 198.15 110.56 169.76 146.87 159.25 140.56 185.06 100 241.25 50.44 295.09"/><polygon class="cls-20" points="205 88.44 169.38 149.55 188.83 128.33 165.59 164.33 225.21 114.56 215.11 143.71 198.61 157.1 198.6 157.11 192.92 161.72 194.95 160.79 196.98 159.85 212.38 152.76 206.45 166.21 178.49 211.59 138.1 255.63 90.98 334.89 78.71 339.96 55.08 345.08 122.64 233.39 151.32 171.56 157.27 158.74 188.83 79.33 188.83 67.88 228.24 62.14 247.32 62.14 235.44 70.54 222.18 76.54 205 88.44"/><polygon class="cls-21" points="265.99 118.73 283.77 129.75 272.6 128.33 243.4 110.64 215.11 143.71 225.21 114.56 235.63 90.81 241.02 96.4 265.99 104.26 272.6 106.85 256.81 104.33 260.83 110.39 286.85 120.49 290.97 130.67 265.99 118.73"/><polygon class="cls-21" points="168.88 37.15 138.1 22.73 129.72 10.87 152.71 20.2 124.49 5 119.36 -0.77 158 0 168.88 37.15"/><polygon class="cls-21" points="171.31 37.15 216.61 50.16 209.4 37.15 183.27 27.53 193.96 29.3 201.87 31.57 164.52 18.19 162.6 12.86 198.9 18.19 192.22 6.11 158 0 171.31 37.15"/><polygon class="cls-22" points="196.98 159.85 212.38 152.76 206.45 166.21 178.49 211.59 138.1 255.63 90.98 334.89 76.73 342.43 100 282.18 122.64 233.39 116.58 250.73 122.14 257.67 138.1 248.33 176.2 207.01 198.61 167.74 176.2 198.31 158.26 214.19 193.38 165.94 196.98 159.85"/><polygon class="cls-23" points="243.4 110.64 215.11 143.71 198.61 157.1 198.6 157.11 194.95 160.79 156.24 199.74 136.03 213.83 151.32 171.56 157.27 158.74 188.83 79.33 188.83 67.88 196.92 78.31 199.95 78.31 222.18 76.54 205 88.44 169.38 149.55 188.83 128.33 165.59 164.33 225.21 114.56 235.63 90.81 243.4 110.64"/><polygon class="cls-21" points="266.95 140.85 297.41 146.9 298.92 150.71 276.5 146.9 284.33 150.71 272.6 149.54 301.19 156.44 302.47 159.67 261.59 152.76 266.95 140.85"/><polygon class="cls-21" points="91.39 44.77 102.01 67.3 136.03 107.91 107.1 85.28 127.42 110.52 136.03 133.51 74.76 100.57 91.39 44.77"/><polygon class="cls-21" points="241.88 90.81 259.32 98.01 275.06 103.06 258.47 94.13 249.18 91.95 254.96 94.69 241.88 90.81"/><polygon class="cls-21" points="269.51 83.16 259.88 80.96 271.63 87.59 269.51 83.16"/><polygon class="cls-21" points="178.22 49.36 187.3 50.87 194.9 53.91 192.24 53.91 178.22 49.36"/><polygon class="cls-20" points="101.4 55.17 116.21 61.36 108.81 61.36 101.4 55.17"/><polygon class="cls-20" points="152.06 248.33 176.2 217.44 207.75 183.46 163.76 237.94 152.06 248.33"/><polygon class="cls-24" points="307.03 402.87 303.75 162.88 268.92 81.84 247.32 62.14 0 77.45 -2.31 404.2 307.03 402.87"/><polygon class="cls-20" points="79.4 103.06 85.5 108.67 63.78 151.24 38.87 210.36 45.84 201.59 74.76 138.63 80.13 133.51 62.19 188.97 73.92 179.77 115.82 146.9 136.03 133.51 79.4 103.06"/><polygon class="cls-21" points="130.85 108.67 138.05 134.58 153.4 142.92 142.13 122.83 142.13 125.79 130.85 108.67"/><polygon class="cls-21" points="144.87 120.75 151.2 130.67 151.2 125.71 144.87 120.75"/><polygon class="cls-21" points="97.17 14.72 105.39 46.63 94.1 23.48 97.17 14.72"/><polygon class="cls-21" points="110.56 169.76 84.11 258.52 93.49 248.33 112.61 182.64 100 241.25 116.21 218.8 123.37 182.9 123.37 208.88 140.56 185.06 140.56 161.07 110.56 169.76"/><polygon class="cls-21" points="93.46 195.31 87.45 212.58 87.45 220.82 93.46 195.31"/><polygon class="cls-21" points="97.46 184.6 98.66 190.35 102.31 179.23 97.46 184.6"/><polygon class="cls-21" points="63.02 278.01 60.71 266.7 74.76 243.77 63.02 278.01"/><polygon class="cls-21" points="228.24 176.07 249.03 161.35 284.33 165.94 293.67 166.73 283.92 170.41 252.77 169 280.53 171.7 272.5 174.75 252.77 174.05 265.76 177.31 253.3 182.04 228.24 176.07"/><polygon class="cls-21" points="212.38 295.54 228.91 278.01 302.47 268.66 290.97 272.7 245.57 277.64 265.35 280.15 212.38 295.54"/><polygon class="cls-21" points="0 40.16 55.08 55.66 13.25 36.6 57.75 49.36 60.71 42.38 38.01 -0.77 0 0 0 40.16"/><polygon class="cls-20" points="101.4 321.97 152.06 248.33 123.37 295.09 126.43 293.4 130.76 291.01 123.37 304.73 129.15 304.92 205.07 218.78 228.24 209.15 209.47 243.78 212.38 250.73 243.4 208.28 200.17 317.42 90.98 334.89 101.4 321.97"/><polygon class="cls-25" points="130.76 291.01 116.3 306.87 101.4 333.55 123.37 304.73 130.76 291.01"/><polygon class="cls-26" points="228.24 209.15 192.62 247.22 201.87 241.25 142.9 326.58 167.19 322.7 212.38 250.73 209.47 243.78 228.24 209.15"/><polygon class="cls-27" points="243.4 208.28 185.57 319.76 200.17 317.42 243.4 208.28"/><polygon class="cls-20" points="0 315.61 33.46 213.51 18.84 247.22 5.05 263.14 13.42 239.96 30.35 214.19 5.05 224.2 0 228.99 0 315.61"/><polygon class="cls-20" points="0 228.99 38.12 145.5 -0.39 206.01 0 228.99"/><polygon class="cls-21" points="303.75 162.88 289.89 259.84 293.67 245.55 299.09 218.78 300.24 217.63 295.58 269.54 302.47 268.66 296.82 270.87 291.77 310.32 305.17 307.95 303.75 162.88"/><polygon class="cls-21" points="289.89 222.31 281.61 262.47 275.76 264.75 289.89 222.31"/></g></g></g></svg>