<svg xmlns="http://www.w3.org/2000/svg" xmlns:xlink="http://www.w3.org/1999/xlink" viewBox="0 0 1000 400"><defs><style>.cls-1{fill:none;}.cls-2{isolation:isolate;}.cls-3{clip-path:url(#clip-path);}.cls-10,.cls-11,.cls-12,.cls-13,.cls-14,.cls-15,.cls-16,.cls-17,.cls-18,.cls-19,.cls-20,.cls-21,.cls-22,.cls-23,.cls-24,.cls-25,.cls-26,.cls-27,.cls-28,.cls-29,.cls-30,.cls-31,.cls-32,.cls-33,.cls-34,.cls-35,.cls-36,.cls-37,.cls-38,.cls-39,.cls-4,.cls-40,.cls-41,.cls-42,.cls-43,.cls-44,.cls-45,.cls-46,.cls-47,.cls-48,.cls-49,.cls-5,.cls-50,.cls-51,.cls-52,.cls-53,.cls-54,.cls-55,.cls-56,.cls-57,.cls-58,.cls-59,.cls-6,.cls-60,.cls-7,.cls-8,.cls-9{fill-rule:evenodd;}.cls-4{fill:url(#Áåçûìÿííûé_ãðàäèåíò_11);}.cls-24,.cls-25,.cls-38,.cls-5{opacity:0.6;}.cls-10,.cls-11,.cls-12,.cls-14,.cls-15,.cls-17,.cls-19,.cls-20,.cls-24,.cls-25,.cls-26,.cls-27,.cls-28,.cls-29,.cls-30,.cls-31,.cls-32,.cls-33,.cls-38,.cls-42,.cls-43,.cls-44,.cls-45,.cls-46,.cls-5,.cls-51,.cls-52,.cls-53,.cls-54,.cls-60{mix-blend-mode:multiply;}.cls-5{fill:url(#Áåçûìÿííûé_ãðàäèåíò_150);}.cls-6{fill:#aabdf9;}.cls-7{fill:url(#Áåçûìÿííûé_ãðàäèåíò_50);}.cls-8{fill:url(#Áåçûìÿííûé_ãðàäèåíò_50-2);}.cls-9{fill:url(#Áåçûìÿííûé_ãðàäèåíò_50-3);}.cls-10,.cls-11,.cls-12,.cls-14,.cls-15,.cls-17,.cls-19,.cls-20,.cls-30,.cls-44,.cls-45,.cls-46,.cls-51{opacity:0.5;}.cls-10{fill:url(#Áåçûìÿííûé_ãðàäèåíò_150-2);}.cls-11{fill:url(#Áåçûìÿííûé_ãðàäèåíò_150-3);}.cls-12{fill:url(#Áåçûìÿííûé_ãðàäèåíò_150-4);}.cls-13{fill:#907f82;}.cls-13,.cls-16,.cls-21,.cls-34,.cls-35,.cls-49{mix-blend-mode:soft-light;}.cls-14{fill:url(#Áåçûìÿííûé_ãðàäèåíò_150-5);}.cls-15{fill:url(#Áåçûìÿííûé_ãðàäèåíò_150-6);}.cls-16{fill:#725c60;}.cls-17{fill:url(#Áåçûìÿííûé_ãðàäèåíò_150-7);}.cls-18{fill:url(#Áåçûìÿííûé_ãðàäèåíò_50-4);}.cls-19{fill:url(#Áåçûìÿííûé_ãðàäèåíò_150-8);}.cls-20{fill:url(#Áåçûìÿííûé_ãðàäèåíò_150-9);}.cls-21{fill:#a29396;}.cls-22{fill:url(#Áåçûìÿííûé_ãðàäèåíò_50-5);}.cls-23{fill:#755559;}.cls-24{fill:url(#Áåçûìÿííûé_ãðàäèåíò_150-10);}.cls-25{fill:url(#Áåçûìÿííûé_ãðàäèåíò_150-11);}.cls-26,.cls-27,.cls-28,.cls-29,.cls-31,.cls-32,.cls-33,.cls-42,.cls-43{opacity:0.3;}.cls-26{fill:url(#Áåçûìÿííûé_ãðàäèåíò_150-12);}.cls-27{fill:url(#Áåçûìÿííûé_ãðàäèåíò_150-13);}.cls-28{fill:url(#Áåçûìÿííûé_ãðàäèåíò_150-14);}.cls-29{fill:url(#Áåçûìÿííûé_ãðàäèåíò_150-15);}.cls-30{fill:url(#Áåçûìÿííûé_ãðàäèåíò_150-16);}.cls-31{fill:url(#Áåçûìÿííûé_ãðàäèåíò_150-17);}.cls-32{fill:url(#Áåçûìÿííûé_ãðàäèåíò_150-18);}.cls-33{fill:url(#Áåçûìÿííûé_ãðàäèåíò_150-19);}.cls-34{fill:#b59aa0;}.cls-35{fill:#92959b;}.cls-36{fill:url(#Áåçûìÿííûé_ãðàäèåíò_50-6);}.cls-37{fill:url(#Áåçûìÿííûé_ãðàäèåíò_50-7);}.cls-38{fill:url(#Áåçûìÿííûé_ãðàäèåíò_150-20);}.cls-39{fill:url(#Áåçûìÿííûé_ãðàäèåíò_50-8);}.cls-40{fill:url(#Áåçûìÿííûé_ãðàäèåíò_50-9);}.cls-41{fill:#271624;}.cls-42{fill:url(#Áåçûìÿííûé_ãðàäèåíò_150-21);}.cls-43{fill:url(#Áåçûìÿííûé_ãðàäèåíò_150-22);}.cls-44{fill:url(#Áåçûìÿííûé_ãðàäèåíò_150-23);}.cls-45{fill:url(#Áåçûìÿííûé_ãðàäèåíò_150-24);}.cls-46{fill:url(#Áåçûìÿííûé_ãðàäèåíò_150-25);}.cls-47{fill:#866d6a;}.cls-48{fill:#a59391;}.cls-49{fill:#aa9d9f;}.cls-50{fill:#8d7c7f;}.cls-51{fill:url(#Áåçûìÿííûé_ãðàäèåíò_150-26);}.cls-52,.cls-53,.cls-54{opacity:0.8;}.cls-52{fill:url(#Áåçûìÿííûé_ãðàäèåíò_150-27);}.cls-53{fill:url(#Áåçûìÿííûé_ãðàäèåíò_150-28);}.cls-54{fill:url(#Áåçûìÿííûé_ãðàäèåíò_150-29);}.cls-55{fill:#766165;}.cls-56{fill:#e09c6f;}.cls-57{fill:#e1e8fd;}.cls-58{fill:#c7d4fb;}.cls-59{fill:#c1cffb;}.cls-60{fill:url(#Áåçûìÿííûé_ãðàäèåíò_84);}</style><clipPath id="clip-path"><rect class="cls-1" width="1000" height="400"/></clipPath><linearGradient id="Áåçûìÿííûé_ãðàäèåíò_11" x1="500.09" y1="400" x2="500.09" y2="252.62" gradientUnits="userSpaceOnUse"><stop offset="0" stop-color="#6a625e"/><stop offset="1" stop-color="#695c69"/></linearGradient><linearGradient id="Áåçûìÿííûé_ãðàäèåíò_150" y1="341.85" x2="705.34" y2="341.85" gradientUnits="userSpaceOnUse"><stop offset="0" stop-color="#9d7c90"/><stop offset="1" stop-color="#775477"/></linearGradient><linearGradient id="Áåçûìÿííûé_ãðàäèåíò_50" x1="662.37" y1="397.45" x2="651.76" y2="293.37" gradientUnits="userSpaceOnUse"><stop offset="0" stop-color="#382c44"/><stop offset="1" stop-color="#594c4c"/></linearGradient><linearGradient id="Áåçûìÿííûé_ãðàäèåíò_50-2" x1="642.74" y1="399.45" x2="632.13" y2="295.37" xlink:href="#Áåçûìÿííûé_ãðàäèåíò_50"/><linearGradient id="Áåçûìÿííûé_ãðàäèåíò_50-3" x1="588.51" y1="404.98" x2="577.9" y2="300.9" xlink:href="#Áåçûìÿííûé_ãðàäèåíò_50"/><linearGradient id="Áåçûìÿííûé_ãðàäèåíò_150-2" x1="300.5" y1="313.31" x2="297.9" y2="287.87" xlink:href="#Áåçûìÿííûé_ãðàäèåíò_150"/><linearGradient id="Áåçûìÿííûé_ãðàäèåíò_150-3" x1="468.02" y1="354.89" x2="462.37" y2="299.5" xlink:href="#Áåçûìÿííûé_ãðàäèåíò_150"/><linearGradient id="Áåçûìÿííûé_ãðàäèåíò_150-4" x1="380.58" y1="394.81" x2="379.67" y2="385.85" xlink:href="#Áåçûìÿííûé_ãðàäèåíò_150"/><linearGradient id="Áåçûìÿííûé_ãðàäèåíò_150-5" x1="447.99" y1="320.13" x2="446.84" y2="308.84" xlink:href="#Áåçûìÿííûé_ãðàäèåíò_150"/><linearGradient id="Áåçûìÿííûé_ãðàäèåíò_150-6" x1="422.48" y1="314.36" x2="421.9" y2="308.61" xlink:href="#Áåçûìÿííûé_ãðàäèåíò_150"/><linearGradient id="Áåçûìÿííûé_ãðàäèåíò_150-7" x1="469.64" y1="334.86" x2="805.7" y2="334.86" xlink:href="#Áåçûìÿííûé_ãðàäèåíò_150"/><linearGradient id="Áåçûìÿííûé_ãðàäèåíò_50-4" x1="766" y1="386.89" x2="755.39" y2="282.8" xlink:href="#Áåçûìÿííûé_ãðàäèåíò_50"/><linearGradient id="Áåçûìÿííûé_ãðàäèåíò_150-8" x1="600.17" y1="362.82" x2="937" y2="362.82" xlink:href="#Áåçûìÿííûé_ãðàäèåíò_150"/><linearGradient id="Áåçûìÿííûé_ãðàäèåíò_150-9" x1="559.95" y1="300.37" x2="745" y2="300.37" xlink:href="#Áåçûìÿííûé_ãðàäèåíò_150"/><linearGradient id="Áåçûìÿííûé_ãðàäèåíò_50-5" x1="901.56" y1="278.45" x2="898.47" y2="248.21" xlink:href="#Áåçûìÿííûé_ãðàäèåíò_50"/><linearGradient id="Áåçûìÿííûé_ãðàäèåíò_150-10" x1="761.1" y1="267.05" x2="761.1" y2="262.76" xlink:href="#Áåçûìÿííûé_ãðàäèåíò_150"/><linearGradient id="Áåçûìÿííûé_ãðàäèåíò_150-11" x1="943.01" y1="275.37" x2="943.01" y2="259.84" xlink:href="#Áåçûìÿííûé_ãðàäèåíò_150"/><linearGradient id="Áåçûìÿííûé_ãðàäèåíò_150-12" x1="907.22" y1="299.42" x2="907.22" y2="292.79" xlink:href="#Áåçûìÿííûé_ãðàäèåíò_150"/><linearGradient id="Áåçûìÿííûé_ãðàäèåíò_150-13" x1="932.9" y1="317.42" x2="932.9" y2="313.8" xlink:href="#Áåçûìÿííûé_ãðàäèåíò_150"/><linearGradient id="Áåçûìÿííûé_ãðàäèåíò_150-14" x1="937.8" y1="400" x2="937.8" y2="355.85" xlink:href="#Áåçûìÿííûé_ãðàäèåíò_150"/><linearGradient id="Áåçûìÿííûé_ãðàäèåíò_150-15" x1="549.43" y1="395.36" x2="549.43" y2="375.66" xlink:href="#Áåçûìÿííûé_ãðàäèåíò_150"/><linearGradient id="Áåçûìÿííûé_ãðàäèåíò_150-16" x1="583.91" y1="395.36" x2="583.91" y2="385.51" xlink:href="#Áåçûìÿííûé_ãðàäèåíò_150"/><linearGradient id="Áåçûìÿííûé_ãðàäèåíò_150-17" x1="303.78" y1="345.08" x2="303.78" y2="331.82" xlink:href="#Áåçûìÿííûé_ãðàäèåíò_150"/><linearGradient id="Áåçûìÿííûé_ãðàäèåíò_150-18" x1="235.79" y1="350.55" x2="235.79" y2="325.4" xlink:href="#Áåçûìÿííûé_ãðàäèåíò_150"/><linearGradient id="Áåçûìÿííûé_ãðàäèåíò_150-19" x1="197.51" y1="349.88" x2="197.51" y2="327.38" xlink:href="#Áåçûìÿííûé_ãðàäèåíò_150"/><linearGradient id="Áåçûìÿííûé_ãðàäèåíò_50-6" x1="903.59" y1="315.53" x2="899.45" y2="274.94" xlink:href="#Áåçûìÿííûé_ãðàäèåíò_50"/><linearGradient id="Áåçûìÿííûé_ãðàäèåíò_50-7" x1="940.02" y1="305.08" x2="937.85" y2="283.75" xlink:href="#Áåçûìÿííûé_ãðàäèåíò_50"/><linearGradient id="Áåçûìÿííûé_ãðàäèåíò_150-20" x1="875.42" y1="287.32" x2="962.65" y2="287.32" xlink:href="#Áåçûìÿííûé_ãðàäèåíò_150"/><linearGradient id="Áåçûìÿííûé_ãðàäèåíò_50-8" x1="829.58" y1="328.51" x2="827.04" y2="303.58" xlink:href="#Áåçûìÿííûé_ãðàäèåíò_50"/><linearGradient id="Áåçûìÿííûé_ãðàäèåíò_50-9" x1="559.95" y1="370.28" x2="590.08" y2="370.28" xlink:href="#Áåçûìÿííûé_ãðàäèåíò_50"/><linearGradient id="Áåçûìÿííûé_ãðàäèåíò_150-21" x1="111.08" y1="329.17" x2="111.08" y2="311.27" xlink:href="#Áåçûìÿííûé_ãðàäèåíò_150"/><linearGradient id="Áåçûìÿííûé_ãðàäèåíò_150-22" x1="47.68" y1="334.66" x2="47.68" y2="328.08" xlink:href="#Áåçûìÿííûé_ãðàäèåíò_150"/><linearGradient id="Áåçûìÿííûé_ãðàäèåíò_150-23" x1="412.28" y1="354.92" x2="412.28" y2="341.31" xlink:href="#Áåçûìÿííûé_ãðàäèåíò_150"/><linearGradient id="Áåçûìÿííûé_ãðàäèåíò_150-24" x1="61.39" y1="375.42" x2="60.15" y2="363.22" xlink:href="#Áåçûìÿííûé_ãðàäèåíò_150"/><linearGradient id="Áåçûìÿííûé_ãðàäèåíò_150-25" x1="110.86" y1="371.06" x2="110.22" y2="364.76" xlink:href="#Áåçûìÿííûé_ãðàäèåíò_150"/><linearGradient id="Áåçûìÿííûé_ãðàäèåíò_150-26" x1="325.89" y1="302.75" x2="341.8" y2="302.75" xlink:href="#Áåçûìÿííûé_ãðàäèåíò_150"/><linearGradient id="Áåçûìÿííûé_ãðàäèåíò_150-27" x1="137.12" y1="359.44" x2="172.92" y2="359.44" xlink:href="#Áåçûìÿííûé_ãðàäèåíò_150"/><linearGradient id="Áåçûìÿííûé_ãðàäèåíò_150-28" x1="487.32" y1="323.27" x2="495.66" y2="323.27" xlink:href="#Áåçûìÿííûé_ãðàäèåíò_150"/><linearGradient id="Áåçûìÿííûé_ãðàäèåíò_150-29" x1="306.56" y1="300.84" x2="357.28" y2="300.84" xlink:href="#Áåçûìÿííûé_ãðàäèåíò_150"/><linearGradient id="Áåçûìÿííûé_ãðàäèåíò_84" x1="-2.92" y1="358.71" x2="1000.17" y2="358.71" gradientUnits="userSpaceOnUse"><stop offset="0" stop-color="#776d90"/><stop offset="1" stop-color="#775477"/></linearGradient></defs><title>Artboard 6</title><g class="cls-2"><g id="rock_04"><g class="cls-3"><polygon class="cls-4" points="1000.17 267.78 1000.17 400 0 400 0 328.99 239.74 293.8 558.06 252.62 1000.17 267.78"/><polygon class="cls-5" points="689.93 283.69 650.01 287.48 556.29 300.75 518.27 293.8 425.36 289.6 525.09 296.07 557.65 303.27 556.29 304.92 495.66 317.55 487.32 317.55 443.24 309.21 392.08 308.33 331.45 304.16 325.89 300.62 359.01 293.42 302.05 304.16 61.66 319.94 200.17 320.07 305.17 307.95 354.94 307.76 482.77 320.07 490.51 320.07 442.6 339.53 378.81 345.08 275.74 359.48 239.74 362.14 0 367.63 0 376.85 436.44 353.42 462.56 355.44 432.18 387.23 65.67 400 136.03 400 429.72 389.8 462.56 355.44 443.24 344.83 570.53 304.16 705.34 284.68 689.93 283.69"/><polygon class="cls-6" points="577.01 269.86 694.29 280.87 761.93 283.69 680.09 282.28 658.6 283.69 838.73 287.48 963.87 273.9 1000.17 272.7 1000.17 267.78 969.15 264.53 933.16 264.53 929.82 261.76 918.91 255.63 876.37 261.97 875.42 262.76 869.17 262.57 823.57 263.99 780.37 264.38 727.83 264.53 577.01 269.86"/><polygon class="cls-6" points="1000.17 271.95 1000.17 400 403.92 399.6 544.79 395.36 498.69 394.1 462.56 388.28 429.72 389.8 443.24 375.66 462.56 355.44 440.33 353.42 443.24 344.83 570.53 304.16 705.34 284.68 1000.17 271.95"/><polygon class="cls-7" points="559.95 313.25 568.41 307.19 674.02 291.01 739.95 285.59 745 287.48 745 292.79 727.83 304.16 559.95 313.25"/><path class="cls-8" d="M469.64,347.36l3.41-4.42,139.6-29.69L702,308s73.15-3,82.25-3a62.51,62.51,0,0,1,16.86,2.46l-81.66,23.3s-80.09,14.15-92,14.15-128.84,5.05-128.84,5.05Z"/><path class="cls-9" d="M543.28,359.23s3.34,2.78,19.54,2.78,47-2.78,47-2.78l5.38-2.52,8-8.85L620,346.22l-54.22,4.21S546.72,355.79,543.28,359.23Z"/><polygon class="cls-10" points="239.74 293.8 325.89 296.33 331.41 299.42 302.05 304.16 287.55 309.98 282.95 305.79 261.72 307.61 259.24 313.25 305.17 307.95 354.94 307.76 357.82 305.97 331.45 304.16 325.89 300.62 357.28 293.8 239.74 293.8"/><polygon class="cls-11" points="518.27 293.8 525.09 296.07 557.65 303.27 556.29 304.92 495.66 317.55 487.32 317.55 487.32 320.07 490.51 320.07 442.6 339.53 436.44 353.42 331.37 358.05 329.56 351.96 278.66 359.08 278.66 361.89 437.91 353.54 462.56 355.44 443.24 344.83 570.53 304.16 651.72 292.43 616.92 291.01 610.35 292.79 564.12 299.42 556.29 300.75 518.27 293.8"/><polygon class="cls-12" points="328.07 393.33 331.82 390.73 432.18 387.23 429.72 389.8 328.07 393.33"/><polygon class="cls-13" points="495.66 317.55 487.32 317.55 443.24 309.21 392.08 308.33 331.45 304.16 325.89 300.62 357.28 293.8 416.09 289.03 522.81 295.82 557.65 303.27 556.29 304.92 495.66 317.55"/><polygon class="cls-14" points="429.58 314.95 443.24 309.21 465.19 313.36 465.19 318.38 429.58 314.95"/><polygon class="cls-15" points="422.96 314.31 426.75 308.93 419.93 308.81 417.61 313.8 422.96 314.31"/><polygon class="cls-16" points="556.29 300.75 518.27 293.8 429.58 289.44 523.94 289.44 615.23 291.47 610.35 292.79 556.29 300.75"/><polygon class="cls-13" points="462.56 355.44 436.44 353.42 144.87 368.6 201.87 395.25 432.18 387.23 462.56 355.44"/><polygon class="cls-16" points="61.66 319.94 289 305.27 315.28 302.02 357.28 293.8 239.74 293.8 121.69 310.28 61.66 319.94"/><path class="cls-17" d="M788.59,304.92l-90.32,26.52L527.74,346.22l-54.69-3.28-3.41,4.42,28.42,6.06,40.54.7L536.84,360l33.7,4.82,44.69-4.5s51.44-18.86,65.61-21.54S805.7,317.42,805.7,317.42l-1.5-9.7Z"/><path class="cls-18" d="M603.91,372.75l-3.74-6.44s48.83-19.84,65.38-24S789.4,317.42,805.7,317.42s78.25,3.66,92.15,10,28.54,26.72,28.54,26.72L916.29,362s-97.52,30.32-125.56,33.35S603.91,372.75,603.91,372.75Z"/><path class="cls-19" d="M904.76,331.56s15.32,15.55,15.32,18.32S817.26,385.25,780.37,389.8s-180.2-23.49-180.2-23.49l3.74,6.44s125.43,27.41,190.86,25.39S937,356.51,937,356.51l-1.76-6.63L897.85,327.4Z"/><polygon class="cls-20" points="568.41 307.19 686.33 304.92 730.29 300.75 745 287.48 745 292.79 727.83 304.16 559.95 313.25 568.41 307.19"/><path class="cls-21" d="M665.55,342.31l3.92,22.5s53.4,31,119.12,23.72c81.28-9,108.06-57.66,108.06-57.66s-86.88-14.05-93.74-13.32S665.55,342.31,665.55,342.31Z"/><path class="cls-22" d="M871.32,262.76h23.3l33.16-3.25v-4.69l-7.48-4.21A221.66,221.66,0,0,0,871.32,262.76Z"/><path class="cls-23" d="M669.47,364.81l-23.85,9.81-45.45-8.31s46.88-19,65.38-24Z"/><polygon class="cls-23" points="612.65 313.25 537.97 339.53 502.92 344.73 473.05 342.94 612.65 313.25"/><polygon class="cls-24" points="875.42 262.76 863.99 265.82 646.78 267.05 727.83 264.53 875.42 262.76"/><polygon class="cls-25" points="926.39 259.84 926.39 264.53 893.8 266.15 918.05 266.02 926.39 266.2 937 266.43 952.57 270.56 934.73 272.7 885.85 275.37 1000.17 275.37 1000.17 267.78 969.15 264.53 933.16 264.53 929.82 261.76 926.39 259.84"/><polygon class="cls-26" points="814.28 299.42 918.91 292.79 1000.17 299.42 814.28 299.42"/><polygon class="cls-27" points="896.65 314.31 937 313.8 969.15 317.42 896.65 314.31"/><polygon class="cls-28" points="1000.17 355.85 898.16 386.57 955.95 378.52 875.42 400 1000.17 400 1000.17 355.85"/><polygon class="cls-29" points="443.24 375.66 441.77 382.22 471.09 382.22 527.74 387.23 669.14 395.36 544.79 395.36 498.69 394.1 462.56 388.28 429.72 389.8 443.24 375.66"/><polygon class="cls-30" points="498.69 394.1 509.93 385.51 534.8 387.64 669.14 395.36 540.87 395.25 498.69 394.1"/><polygon class="cls-6" points="230.65 316.55 386.01 344.46 378.81 345.08 289 339.53 344.46 349.88 339.7 350.55 215.56 335.4 207.91 334.46 223.07 339.53 278.73 349.88 116.3 330.39 155.28 318.25 230.65 316.55"/><polygon class="cls-31" points="378.81 345.08 286.92 337.5 228.75 331.82 289 339.53 378.81 345.08"/><polygon class="cls-32" points="339.7 350.55 262.78 339.53 131.88 325.39 200.17 334.46 207.91 334.46 339.7 350.55"/><polygon class="cls-33" points="278.73 349.88 125.69 327.38 116.3 330.39 278.73 349.88"/><polygon class="cls-34" points="719.49 330.68 825.64 380.86 825.64 387.99 834.51 385.69 836.41 377.93 722.7 329.77 719.49 330.68"/><polygon class="cls-35" points="746.64 326.31 879.15 349.88 896.85 358.88 897.85 367.63 916.29 362.01 920.08 349.88 893.8 335.97 759.88 323.96 746.64 326.31"/><polygon class="cls-35" points="612.65 313.25 745 317.42 746.64 322.94 791.68 309.65 788.59 304.92 665.55 310.11 612.65 313.25"/><polygon class="cls-35" points="393.74 355.64 395.91 343.59 289.89 309.71 297.72 308.81 400.99 343.34 400.9 354.99 423.02 354.01 425.17 341.05 359.01 308.15 365.84 308.81 429.72 340.65 426.87 353.84 393.74 355.64"/><polygon class="cls-35" points="234.91 364.24 375.23 387.99 405.29 387.23 251.02 363.37 234.91 364.24"/><polygon class="cls-34" points="200.17 366.1 296.17 391.97 246.92 393.69 176.65 367.37 200.17 366.1"/><polygon class="cls-34" points="410.9 289.76 431.11 308.81 443.24 309.21 413.49 289.95 410.9 289.76"/><polygon class="cls-34" points="401.55 289.76 426.75 308.93 422.96 308.93 391.61 291.01 401.55 289.76"/><polygon class="cls-36" points="875.42 293.8 897.85 282.37 917.11 279.34 924.06 279.34 926.8 288.62 912.37 292.79 875.42 293.8"/><polygon class="cls-37" points="922.48 291.4 933.16 287.48 940.41 287.48 954.69 290.52 947.99 292.79 922.48 291.4"/><polygon class="cls-38" points="875.42 293.8 911.99 288.62 918.18 286.57 924.06 279.34 926.8 288.62 933.16 287.48 927.78 290.14 938.58 290.14 954.69 290.52 962.65 291.53 949.62 295.3 918.91 292.79 875.42 293.8"/><polygon class="cls-39" points="810.94 313.25 816.25 309.46 836.41 306.43 844.54 307.69 838.98 314.14 816.78 313.93 810.94 313.25"/><polygon class="cls-40" points="559.95 371.42 573.78 367.63 583.91 367.63 590.08 369.52 577.01 372.94 561.35 372.94 559.95 371.42"/><polygon class="cls-41" points="134.26 319.94 131.88 319.94 136.03 322.92 89.3 338.45 80.2 338.45 11.74 358.71 0 367.63 0 376.85 3.4 376.85 1.13 368.6 11.48 361.13 80.89 339.27 89.93 338.83 145.54 321.02 149.52 319.94 134.26 319.94"/><polygon class="cls-6" points="46.43 322.18 68.89 316.55 152.06 309.27 196 311.27 118.92 316.28 119.67 319.94 131.88 319.94 106.03 329.17 43.88 327.38 90.31 333.55 84.43 334.66 5.05 328.25 46.43 322.18"/><polygon class="cls-42" points="196 311.27 144.75 312.87 107.74 316.55 66.31 318.81 119.67 319.94 126.31 320.45 117.21 323.99 84.75 325.39 113.42 324.81 112.19 326.31 102.62 327.38 36.87 326.31 26.17 327.38 43.88 327.38 106.03 329.17 131.88 319.94 119.72 319.46 118.92 316.28 196 311.27"/><polygon class="cls-43" points="90.31 333.55 81.07 333.15 6.2 328.08 5.05 328.25 84.43 334.66 90.31 333.55"/><polygon class="cls-44" points="402.38 354.92 409.18 342.44 422.18 341.31 422.18 354.19 402.38 354.92"/><polygon class="cls-45" points="21.78 375.68 21.78 367.13 100 365.34 100 371.48 21.78 375.68"/><polygon class="cls-46" points="104.82 371.22 105.85 365.2 116.3 364.96 116.3 370.51 104.82 371.22"/><polygon class="cls-47" points="68.89 365.74 82.16 363.37 102.24 364.56 120.43 363.37 192.62 363.22 68.89 365.74"/><polygon class="cls-41" points="89.93 338.83 76.73 342.43 62.44 345.08 57.42 346.66 76.85 342.75 97.13 337.97 100 334.89 89.93 338.83"/><polygon class="cls-47" points="11.48 361.13 27.4 363.37 54.12 366.1 1.13 368.6 11.48 361.13"/><polygon class="cls-48" points="104.82 364.86 122.89 361.13 153.47 364.01 104.82 364.86"/><polygon class="cls-41" points="170.49 367.7 169.88 363.37 146.96 355.64 97.13 337.97 97.85 337.2 99.21 337.97 172.35 363.63 172.44 367.61 170.49 367.7"/><polygon class="cls-49" points="97.13 337.97 76.73 342.43 57.42 346.66 11.48 361.13 1.13 368.6 169.88 363.37 97.13 337.97"/><polygon class="cls-49" points="168.23 352.45 215.23 362.32 260.35 360.62 225.21 352.45 222.43 353.29 185.04 346.66 168.23 352.45"/><polygon class="cls-50" points="394.23 343.74 402.38 340.03 421.25 340.03 442.6 339.53 394.23 343.74"/><polygon class="cls-51" points="325.89 300.62 341.8 304.87 331.45 304.16 325.89 300.62"/><polygon class="cls-50" points="668.61 359.89 678.54 369.4 665.55 366.42 668.61 359.89"/><path class="cls-50" d="M538,339.53l11.46,4.21s-17.16,3-23.46,2.48S503.86,345,503.86,345Z"/><polygon class="cls-50" points="413.27 387.23 437 382.18 432.18 387.23 413.27 387.23"/><polygon class="cls-52" points="137.13 351.27 145.3 353.42 167.08 357.08 172.79 363.65 172.92 367.58 172.44 367.61 172.35 363.63 137.13 351.27"/><polygon class="cls-49" points="167.08 357.08 176.65 355.64 151.87 349.88 137.13 351.27 145.3 353.42 167.08 357.08"/><polygon class="cls-50" points="164.87 356.71 170.59 356.56 169.88 360.31 164.87 356.71"/><polygon class="cls-41" points="429.58 314.95 443.24 309.21 435.44 304.16 411.85 289.37 413.27 289.26 416.07 291.62 439.36 306.05 448.84 310.22 448.41 310.93 439.93 311.56 434.15 313.8 433.73 315.35 429.58 314.95"/><polygon class="cls-41" points="539.96 313.93 539.96 308.32 518.41 295.54 519.84 295.54 540.92 308.12 540.92 313.62 539.96 313.93"/><polygon class="cls-16" points="519.84 295.54 525.09 296.07 557.65 303.27 556.29 304.92 540.92 308.12 519.84 295.54"/><polygon class="cls-50" points="537.71 306.2 545.01 307.27 540.92 310.32 540.92 308.12 537.71 306.2"/><polygon class="cls-53" points="490.51 320.07 494.26 328.99 495.66 317.55 487.32 317.55 487.32 320.07 490.51 320.07"/><polygon class="cls-54" points="323.23 307.88 325.89 300.62 357.28 293.8 321.72 293.8 318.18 295.95 325.89 296.33 328.97 299.34 307.83 302.94 306.56 307.88 323.23 307.88"/><polygon class="cls-50" points="368.19 306.68 381.78 306.68 395.86 306.68 411.85 308.67 394.23 308.67 368.19 306.68"/><polygon class="cls-50" points="201.87 363.04 222.18 361.13 242.64 359.44 263.3 360.31 286.41 355.64 318.69 353.48 278.66 359.08 239.74 362.14 201.87 363.04"/><polygon class="cls-55" points="850.2 370.88 859.76 362.82 880.62 349.88 871.71 359.89 862.79 367.63 850.2 370.88"/><polygon class="cls-55" points="612.69 338.86 625 335.97 672.04 333.71 635.39 336.89 612.69 338.86"/><polygon class="cls-34" points="85.5 400 54.12 389.64 92.58 379.89 134.78 379.89 192.62 395.58 139.57 398.24 85.5 400"/><polygon class="cls-56" points="233.76 293.8 100.52 313.79 115.16 312.5 241.88 293.86 233.76 293.8"/><polygon class="cls-57" points="152.06 309.27 144.75 312.87 66.31 318.81 75.99 319.01 42.75 326.41 36.87 326.31 5.05 328.25 46.43 322.18 67.73 316.55 152.06 309.27"/><polygon class="cls-58" points="155.28 318.25 224.59 327.38 312.91 333.55 318.69 331.82 230.65 316.55 155.28 318.25"/><polygon class="cls-59" points="849.27 314.14 937 313.8 905.04 310.28 913.88 308.45 849.27 314.14"/><polygon class="cls-6" points="719.49 366.1 738.08 367.63 750.35 370.28 751.76 374.34 742.77 374.34 719.49 366.1"/><polygon class="cls-6" points="713.52 358.88 720.62 356.51 729 358.46 713.52 358.88"/><polygon class="cls-6" points="620.16 318.38 587.03 322.27 583.91 325.39 620.16 318.38"/><polygon class="cls-6" points="441.63 324.69 450.42 323.74 454.69 327.05 436.56 326.28 441.63 324.69"/><polygon class="cls-6" points="823.47 322.94 827.74 321.89 844.88 323.96 840.9 325.39 823.47 322.94"/><polygon class="cls-6" points="819.02 323.64 811.81 323.64 808.42 323.96 806.89 325.39 819.02 325.39 819.02 323.64"/><polygon class="cls-6" points="609.72 286.3 606.98 284.88 601.76 285.59 600.49 286.3 609.72 286.3"/><polygon class="cls-6" points="570.96 292.13 576.52 287.39 583.63 287.39 594.81 289.76 570.96 292.13"/><polygon class="cls-59" points="667.29 275.37 714.62 279.34 871.32 279.34 667.29 275.37"/><polygon class="cls-59" points="758.03 285.59 856.28 283.69 891.37 281.77 875.42 285.59 888.5 285.59 875.42 293.8 772.51 296.11 779.8 295.3 742.77 295.3 797.85 286.62 758.03 285.59"/><polygon class="cls-60" points="1000.17 317.42 909.89 336.93 896.65 330.87 666.23 346.22 620.31 358.46 572.53 354.12 543.28 359.23 462.56 355.44 454.41 362.01 315.28 362.34 312.55 354.34 0 353.42 -2.92 400 1000.17 400 1000.17 317.42"/></g></g></g></svg>